<svg width="139" height="96" viewBox="0 0 139 96" fill="none" xmlns="http://www.w3.org/2000/svg">
<mask id="path-1-inside-1" fill="white">
<path d="M129.777 19.0685C103.427 32.2192 93.4205 14.6849 94.2989 0C75.4025 31.0356 55.1803 12.9315 47.4313 0C54.8095 28.9315 23.496 13.8082 12.5166 9.20548C28.327 21.6986 34.2559 40.7671 0 42.0822C26.2428 49.9403 16.3318 78.45 12.5628 89.2918L12.5166 89.4247C26.3507 80.8767 48.7488 74.3014 55.3365 92.0548C65.8768 72.9863 90.5342 81.0959 94.2989 96C97.0101 62.3342 123.19 64.4384 139 64.4384C123.848 56.5479 111.859 54.8384 129.777 19.0685Z"/>
</mask>
<path d="M129.777 19.0685C103.427 32.2192 93.4205 14.6849 94.2989 0C75.4025 31.0356 55.1803 12.9315 47.4313 0C54.8095 28.9315 23.496 13.8082 12.5166 9.20548C28.327 21.6986 34.2559 40.7671 0 42.0822C26.2428 49.9403 16.3318 78.45 12.5628 89.2918L12.5166 89.4247C26.3507 80.8767 48.7488 74.3014 55.3365 92.0548C65.8768 72.9863 90.5342 81.0959 94.2989 96C97.0101 62.3342 123.19 64.4384 139 64.4384C123.848 56.5479 111.859 54.8384 129.777 19.0685Z" fill="white"/>
<path d="M94.2989 0L95.2971 0.0597068L93.4448 -0.520051L94.2989 0ZM129.777 19.0685L130.671 19.5164L132.015 16.8341L129.331 18.1737L129.777 19.0685ZM139 64.4384V65.4384L139.462 63.5514L139 64.4384ZM94.2989 96L93.3294 96.2449L95.2957 96.0803L94.2989 96ZM55.3365 92.0548L54.399 92.4027L55.1572 94.4462L56.2117 92.5386L55.3365 92.0548ZM12.5166 89.4247L11.572 89.0963L10.6479 91.7548L13.0422 90.2754L12.5166 89.4247ZM12.5628 89.2918L11.6182 88.9634L11.6182 88.9634L12.5628 89.2918ZM0 42.0822L-0.0383612 41.0829L-0.286854 43.0402L0 42.0822ZM12.5166 9.20548L12.9032 8.28324L11.8966 9.99009L12.5166 9.20548ZM47.4313 0L48.2891 -0.514014L46.4623 0.247114L47.4313 0ZM93.3007 -0.0597068C92.8499 7.47695 95.1762 15.904 101.2 20.7517C107.306 25.6653 116.855 26.6352 130.224 19.9633L129.331 18.1737C116.349 24.6525 107.719 23.4306 102.454 19.1935C97.107 14.8906 94.8696 7.20798 95.2971 0.0597068L93.3007 -0.0597068ZM128.883 18.6206C124.388 27.5945 121.736 34.4937 120.551 39.9252C119.365 45.3636 119.632 49.4143 121.076 52.619C122.519 55.8227 125.07 58.0257 128.123 59.9026C131.134 61.7536 134.835 63.397 138.538 65.3253L139.462 63.5514C135.589 61.5345 132.109 60.0054 129.171 58.1988C126.274 56.4181 124.107 54.4787 122.899 51.7974C121.691 49.1172 121.373 45.5405 122.505 40.3515C123.639 35.1556 126.207 28.4274 130.671 19.5164L128.883 18.6206ZM139 63.4384C131.191 63.4384 120.444 62.8932 111.353 66.6711C106.77 68.5758 102.584 71.5832 99.3767 76.3038C96.1744 81.0169 93.9902 87.3754 93.3021 95.9197L95.2957 96.0803C95.9632 87.7917 98.0681 81.7886 101.031 77.4277C103.989 73.0743 107.844 70.2955 112.121 68.5179C120.751 64.9314 130.999 65.4384 139 65.4384V63.4384ZM95.2685 95.7551C93.2721 87.8518 85.7986 81.8691 77.5447 80.3052C69.2111 78.7261 59.9609 81.6216 54.4613 91.571L56.2117 92.5386C61.2523 83.4195 69.601 80.8356 77.1724 82.2702C84.8234 83.7199 91.561 89.2441 93.3294 96.2449L95.2685 95.7551ZM56.274 91.7069C54.5498 87.0601 51.7604 83.943 48.2864 82.0717C44.8326 80.2112 40.7828 79.6245 36.5836 79.8785C28.206 80.3853 18.986 84.2518 11.9909 88.574L13.0422 90.2754C19.8813 86.0496 28.7774 82.3544 36.7043 81.8749C40.6574 81.6358 44.3069 82.1997 47.3379 83.8324C50.3486 85.4542 52.8294 88.1727 54.399 92.4027L56.274 91.7069ZM13.4611 89.753L13.5073 89.6201L11.6182 88.9634L11.572 89.0963L13.4611 89.753ZM13.5073 89.6201C15.3837 84.2225 18.8742 74.2129 18.5352 64.5331C18.365 59.6739 17.2295 54.8329 14.3893 50.6843C11.5399 46.5222 7.0343 43.1447 0.286854 41.1242L-0.286854 43.0402C6.08707 44.9488 10.1837 48.0817 12.739 51.8141C15.3034 55.56 16.3751 59.9974 16.5364 64.6031C16.8604 73.8532 13.5108 83.5192 11.6182 88.9634L13.5073 89.6201ZM0.0383612 43.0815C8.67541 42.7499 14.901 41.2979 19.1059 39.0272C23.3479 36.7364 25.5655 33.5866 26.0252 29.9614C26.4773 26.397 25.2043 22.5651 22.8944 18.8954C20.5763 15.2125 17.1559 11.5969 13.1366 8.42087L11.8966 9.99009C15.7825 13.0607 19.0321 16.5135 21.2018 19.9608C23.3799 23.4212 24.4125 26.7811 24.0411 29.7098C23.6774 32.5778 21.9424 35.2225 18.1556 37.2674C14.3318 39.3323 8.45255 40.757 -0.0383612 41.0829L0.0383612 43.0815ZM12.13 10.1277C14.8438 11.2654 18.9038 13.0925 23.2949 14.7154C27.6825 16.337 32.4953 17.7922 36.7691 18.1741C41.001 18.5523 45.0174 17.9012 47.4124 14.917C49.7909 11.9535 50.2637 7.05994 48.4003 -0.247114L46.4623 0.247114C48.2879 7.40582 47.6134 11.4712 45.8526 13.6652C44.1083 15.8386 40.9937 16.5436 36.9471 16.1821C32.9423 15.8242 28.3292 14.4438 23.9882 12.8394C19.6506 11.2363 15.6791 9.44694 12.9032 8.28324L12.13 10.1277ZM46.5735 0.514014C50.4995 7.06572 57.6681 15.0903 66.4243 17.4531C70.8474 18.6467 75.6501 18.3856 80.5601 15.7962C85.4457 13.2197 90.3708 8.37437 95.153 0.520051L93.4448 -0.520051C88.7788 7.14344 84.09 11.6735 79.6271 14.0271C75.1887 16.3678 70.9085 16.5916 66.9453 15.5222C58.9291 13.359 52.1121 5.86579 48.2891 -0.514014L46.5735 0.514014Z" fill="black" mask="url(#path-1-inside-1)"/>
</svg>
