<?xml version="1.0" encoding="iso-8859-1"?>
<!-- Generator: Adobe Illustrator 15.1.0, SVG Export Plug-In . SVG Version: 6.00 Build 0)  -->
<!DOCTYPE svg PUBLIC "-//W3C//DTD SVG 1.1//EN" "http://www.w3.org/Graphics/SVG/1.1/DTD/svg11.dtd">
<svg version="1.1" id="FlashAICB" xmlns="http://www.w3.org/2000/svg" xmlns:xlink="http://www.w3.org/1999/xlink" x="0px" y="0px"
	 width="93px" height="116.7px" viewBox="0 0 93 116.7" style="enable-background:new 0 0 93 116.7;" xml:space="preserve">
<symbol  id="FlashAICB_Assets_x2F_Layer_1_x2F__x3C_Clip_Group_0_x3E_" viewBox="0 -98.55 78.4 98.55">
	<g id="Layer_1_2_">
	</g>
	<g>
		<defs>
			<polygon id="SVGID_1_" points="0,0 0,-98.55 78.4,-98.55 78.4,0 			"/>
		</defs>
		<clipPath id="SVGID_2_">
			<use xlink:href="#SVGID_1_"  style="overflow:visible;"/>
		</clipPath>
		<g id="Layer_3_1_" style="clip-path:url(#SVGID_2_);">
		</g>
	</g>
	<g id="Layer_4_1_">
	</g>
</symbol>
<g>
	
		<linearGradient id="SVGID_3_" gradientUnits="userSpaceOnUse" x1="0.9912" y1="-46.499" x2="108.7162" y2="-46.499" gradientTransform="matrix(9.282897e-006 1 -1 -0.001 4.231650e-004 -1.878863e-004)">
		<stop  offset="0.0863" style="stop-color:#000000;stop-opacity:0.3294"/>
		<stop  offset="0.2275" style="stop-color:#000000;stop-opacity:0.3294"/>
	</linearGradient>
	<path style="fill-rule:evenodd;clip-rule:evenodd;fill:url(#SVGID_3_);" d="M85.9,108.55V7.05H7.1v101.5H85.9z M0,0h93v115.6H0V0z"
		/>
	
		<linearGradient id="SVGID_4_" gradientUnits="userSpaceOnUse" x1="1.0049" y1="-45.3237" x2="108.7049" y2="-45.3237" gradientTransform="matrix(9.285051e-006 1 -1 -0.001 4.407164e-004 -1.878863e-004)">
		<stop  offset="0" style="stop-color:#FFFFFF;stop-opacity:0.5176"/>
		<stop  offset="0.6549" style="stop-color:#FFFFFF;stop-opacity:0.1765"/>
	</linearGradient>
	<path style="fill-rule:evenodd;clip-rule:evenodd;fill:url(#SVGID_4_);" d="M0,115.6v-0.5c2.2-2.1,4.567-4.733,7.1-7.899v1.35h78.8
		V102l1,0.3l-0.051,1.25c0.233,4.066,1.5,8.084,3.801,12.05H0z"/>
	<g>
		
			<linearGradient id="SVGID_5_" gradientUnits="userSpaceOnUse" x1="-117.0967" y1="46.5059" x2="-96.8967" y2="46.5059" gradientTransform="matrix(4.950495e-005 -1 1 -0.001 -4.947429e-005 2.976531e-004)">
			<stop  offset="0" style="stop-color:#FFFFFF;stop-opacity:0.6"/>
			<stop  offset="0.6549" style="stop-color:#FFFFFF;stop-opacity:0.1765"/>
		</linearGradient>
		<rect y="115.6" style="fill-rule:evenodd;clip-rule:evenodd;fill:url(#SVGID_5_);" width="93" height="1.101"/>
		
			<linearGradient id="SVGID_6_" gradientUnits="userSpaceOnUse" x1="-117.0342" y1="46.501" x2="-96.8592" y2="46.501" gradientTransform="matrix(4.956630e-005 -1 1 -0.001 -3.802095e-005 2.976531e-004)">
			<stop  offset="0" style="stop-color:#FFFFFF;stop-opacity:0.6"/>
			<stop  offset="0.6549" style="stop-color:#FFFFFF;stop-opacity:0.1765"/>
		</linearGradient>
		<rect x="7.1" y="7.05" style="fill-rule:evenodd;clip-rule:evenodd;fill:url(#SVGID_6_);" width="78.8" height="1.1"/>
	</g>
	<rect x="6.85" y="7.7" style="fill-rule:evenodd;clip-rule:evenodd;fill:#A3A3A3;" width="78.4" height="98.55"/>
	
		<linearGradient id="SVGID_7_" gradientUnits="userSpaceOnUse" x1="22.6187" y1="4.5522" x2="118.4618" y2="4.5522" gradientTransform="matrix(0.5266 0.8501 -0.8501 0.5266 -6.884336e-005 -5.945563e-004)">
		<stop  offset="0" style="stop-color:#FFFFFF;stop-opacity:0.5176"/>
		<stop  offset="1" style="stop-color:#FFFFFF;stop-opacity:0"/>
	</linearGradient>
	<rect x="12.25" y="62.9" style="fill-rule:evenodd;clip-rule:evenodd;fill:url(#SVGID_7_);" width="67.6" height="40.149"/>
	<g>
		
			<linearGradient id="SVGID_8_" gradientUnits="userSpaceOnUse" x1="19.103" y1="-2.1411" x2="68.5142" y2="-2.1411" gradientTransform="matrix(0.5793 0.8151 -0.8151 0.5793 1.053214e-004 2.632141e-004)">
			<stop  offset="0" style="stop-color:#FFFFFF;stop-opacity:0.5176"/>
			<stop  offset="1" style="stop-color:#FFFFFF;stop-opacity:0"/>
		</linearGradient>
		<rect x="12.25" y="13.05" style="fill-rule:evenodd;clip-rule:evenodd;fill:url(#SVGID_8_);" width="30.15" height="43.4"/>
		
			<linearGradient id="SVGID_9_" gradientUnits="userSpaceOnUse" x1="20.5063" y1="-38.041" x2="118.7292" y2="-38.041" gradientTransform="matrix(0.5266 0.8501 -0.8501 0.5266 -2.580881e-004 -5.512238e-004)">
			<stop  offset="0" style="stop-color:#FFFFFF;stop-opacity:0.5176"/>
			<stop  offset="1" style="stop-color:#FFFFFF;stop-opacity:0"/>
		</linearGradient>
		<rect x="51.6" y="13.05" style="fill-rule:evenodd;clip-rule:evenodd;fill:url(#SVGID_9_);" width="29.351" height="43.4"/>
	</g>
	
		<use xlink:href="#FlashAICB_Assets_x2F_Layer_1_x2F__x3C_Clip_Group_0_x3E_"  width="78.4" height="98.55" y="-98.55" transform="matrix(1 0 0 -1 6.8501 7.7002)" style="overflow:visible;"/>
	
		<linearGradient id="SVGID_10_" gradientUnits="userSpaceOnUse" x1="23.8154" y1="-7.1416" x2="129.9659" y2="-7.1416" gradientTransform="matrix(0.5101 0.8601 -0.8601 0.5101 -1.282096e-004 -3.730059e-004)">
		<stop  offset="0" style="stop-color:#FFFFFF;stop-opacity:0.5176"/>
		<stop  offset="1" style="stop-color:#FFFFFF;stop-opacity:0"/>
	</linearGradient>
	<rect x="13.05" y="13.6" style="fill-rule:evenodd;clip-rule:evenodd;fill:url(#SVGID_10_);" width="29.65" height="38.8"/>
	
		<linearGradient id="SVGID_11_" gradientUnits="userSpaceOnUse" x1="23.8242" y1="-39.1162" x2="129.9746" y2="-39.1162" gradientTransform="matrix(0.5101 0.8601 -0.8601 0.5101 -1.282096e-004 -3.730059e-004)">
		<stop  offset="0" style="stop-color:#FFFFFF;stop-opacity:0.5176"/>
		<stop  offset="1" style="stop-color:#FFFFFF;stop-opacity:0"/>
	</linearGradient>
	<rect x="50.25" y="13.6" style="fill-rule:evenodd;clip-rule:evenodd;fill:url(#SVGID_11_);" width="29.6" height="38.8"/>
	
		<linearGradient id="SVGID_12_" gradientUnits="userSpaceOnUse" x1="23.8008" y1="1.8389" x2="129.9512" y2="1.8389" gradientTransform="matrix(0.5101 0.8601 -0.8601 0.5101 -1.282096e-004 -3.730059e-004)">
		<stop  offset="0" style="stop-color:#FFFFFF;stop-opacity:0.5176"/>
		<stop  offset="1" style="stop-color:#FFFFFF;stop-opacity:0"/>
	</linearGradient>
	<rect x="12.8" y="63.45" style="fill-rule:evenodd;clip-rule:evenodd;fill:url(#SVGID_12_);" width="68.4" height="38.8"/>
	<path style="fill-rule:evenodd;clip-rule:evenodd;fill:#7F6A40;" d="M81.95,103.55v-92.1H10.7v92.1H81.95z M4.3,5.1h84.05v104.8
		H4.3V5.1z"/>
	<g>
		<path style="fill-rule:evenodd;clip-rule:evenodd;fill:#605030;" d="M42.7,10.2c-0.233,0.133-0.733,0.2-1.5,0.2h-8.4
			c-4.867-0.133-8.5-0.2-10.9-0.2c-1.933-0.133-3.383-0.2-4.35-0.2c-1.167,0-1.9,0.067-2.2,0.2c-0.2,0.1-0.5,0.283-0.9,0.55
			c-0.333,0.267-0.65,0.45-0.95,0.55l-0.7,0.15h-2.1v0.7l-0.6-0.1L9.65,11.6c-1.066-1-2.083-1.833-3.05-2.5L4.3,7.65V5.1h34.35
			L42.7,10.2z"/>
		<path style="fill-rule:evenodd;clip-rule:evenodd;fill:#605030;" d="M83.3,7.95c1.7,0.4,2.351,0.9,1.95,1.5
			c-0.1,0.133-0.417,0.2-0.95,0.2c-0.633,0.067-1.566,0.083-2.8,0.05c-1.3-0.034-2.25-0.034-2.85,0c-2.7,0.2-5.4,0.3-8.101,0.3
			c-3.533,0-6.2,0.133-8,0.4l-3.899,0.75c-0.167,0.033-0.434,0.133-0.801,0.3H49.7c-0.5-0.434-0.8-0.967-0.9-1.6L49.65,5.1H72.55
			C76.783,5.867,80.366,6.817,83.3,7.95z"/>
		<path style="fill-rule:evenodd;clip-rule:evenodd;fill:#605030;" d="M7,58.65c0.533,0.167,1.333,0.65,2.4,1.45l1.3,0.7v9.3
			c-0.167,0.434-0.267,0.884-0.3,1.351L9.25,84.9c-0.2-0.2-0.283-0.617-0.25-1.25c0.067-0.7,0.1-1.15,0.1-1.351v-4.75
			c0-0.6-0.133-1.267-0.4-2c-0.3-0.866-0.534-1.533-0.7-2c-0.533-0.8-0.817-1.517-0.85-2.149c-0.133-2.834-0.233-4.95-0.3-6.351
			C6.75,62.55,6.8,60.417,7,58.65z"/>
		<path style="fill-rule:evenodd;clip-rule:evenodd;fill:#605030;" d="M11.35,103.55c-1.867,1.867-3.033,2.834-3.5,2.9
			c0.667-3.066,1.017-4.717,1.05-4.95c-0.066-0.667-0.017-1.1,0.15-1.3c0.2-0.2,0.75-0.4,1.65-0.601v3.95H11.35z"/>
		<path style="fill-rule:evenodd;clip-rule:evenodd;fill:#605030;" d="M81.95,103.55V102.9c1.8,0.899,3.316,1.55,4.55,1.949
			l-1.05,0.9c-0.601,0.1-1.617-0.267-3.05-1.1l-1.95-1.101H81.95z"/>
		<path style="fill-rule:evenodd;clip-rule:evenodd;fill:#605030;" d="M88.35,58.05v6.75c-1.366,6.3-2.116,11.617-2.25,15.95
			c-0.033,1.366-0.017,3.417,0.051,6.15c-0.034-0.567-0.167-1.117-0.4-1.65c-0.7-1.866-1.15-3.767-1.35-5.7
			c-0.134-1.467-0.467-3.184-1-5.149c-0.667-2.233-1.15-3.917-1.45-5.051v-8.8c0.899-0.366,1.283-0.866,1.149-1.5L88.35,58.05z"/>
	</g>
	<path style="fill-rule:evenodd;clip-rule:evenodd;fill:#BD9D5F;" d="M83.8,105.4V9.55H8.9V105.4H83.8z M2.15,2.9H90.5v109.15H2.15
		V2.9z"/>
	<path style="fill-rule:evenodd;clip-rule:evenodd;fill:#7F6A40;" d="M49.8,9.7v48.4l-1.3-0.35c-1.6-0.333-3.067-0.383-4.4-0.15
		l-1.25,0.2V9.7H49.8z M45,11.85v43.5c0.2-0.033,0.5-0.05,0.9-0.05c0.433,0,1.017,0.034,1.75,0.1V11.85H45z"/>
	<path style="fill-rule:evenodd;clip-rule:evenodd;fill:#7F6A40;" d="M83.25,60.9H9.55v-7.55h73.7V60.9z M82.15,55.5H10.5v3.2h71.65
		V55.5z"/>
	<polygon style="fill-rule:evenodd;clip-rule:evenodd;fill:#BD9D5F;" points="83.25,53.75 83.25,59.15 9.4,59.15 9.4,53.75 
		43.9,53.75 43.9,10.1 48.75,10.1 48.75,53.75 	"/>
	<g>
		<path style="fill-rule:evenodd;clip-rule:evenodd;fill:#AD9056;" d="M6.05,9.35V2.9H6.6v5.35c0,0.733-0.017,1.833-0.05,3.3
			c0.034,1.3,0.167,2.4,0.4,3.3c0.167-0.5,0.267-1.167,0.3-2c0-0.934,0.017-1.617,0.05-2.05l0.25-3.6l0.1,3.6
			C7.683,11.433,7.8,12.483,8,13.95c0.2,1.367,0.317,2.433,0.35,3.2c0.066,1.267,0.083,3.167,0.05,5.7
			c-0.133-0.567-0.316-1.817-0.55-3.75c-0.167-1.567-0.417-2.817-0.75-3.75l-0.3-0.9L6.6,12.9v0.8
			C6.233,12.433,6.05,10.983,6.05,9.35z"/>
		<path style="fill-rule:evenodd;clip-rule:evenodd;fill:#AD9056;" d="M13.55,2.9l0.05,2.35c-0.033,0.767-0.033,1.5,0,2.2l0.05,2.1
			h-1l-0.05-1.5c0.1-0.5,0.2-1.833,0.3-4L13,2.9H13.55z"/>
		<path style="fill-rule:evenodd;clip-rule:evenodd;fill:#AD9056;" d="M18.1,3.6c-0.267,0.167-0.467,0.75-0.6,1.75
			c-0.033,0.533-0.083,1.167-0.15,1.9l-0.45,2.3h-0.2L16.65,9.3c-0.2-1.2-0.267-3.333-0.2-6.4h1.95l0.25,1.6v0.3
			C18.55,4.333,18.367,3.933,18.1,3.6z"/>
		<path style="fill-rule:evenodd;clip-rule:evenodd;fill:#AD9056;" d="M18.8,8.4V7.95l0.55-5.05h1.1c0,1.934-0.117,3.733-0.35,5.4
			L20,9.55h-1.3L18.8,8.4z"/>
		<path style="fill-rule:evenodd;clip-rule:evenodd;fill:#AD9056;" d="M33.5,2.9h1.75c-0.067,1.434-0.2,2.667-0.4,3.7
			c-0.133,1-0.317,1.617-0.55,1.85C34.133,6.517,33.867,4.667,33.5,2.9z"/>
		<polygon style="fill-rule:evenodd;clip-rule:evenodd;fill:#AD9056;" points="30.05,9.55 30.1,2.9 30.85,2.9 30.8,9.55 		"/>
		<path style="fill-rule:evenodd;clip-rule:evenodd;fill:#AD9056;" d="M31.9,2.9l-0.05,6.65h-0.7c-0.033-1.733-0.017-2.933,0.05-3.6
			c0-0.067,0.1-1.083,0.3-3.05H31.9z"/>
		<polygon style="fill-rule:evenodd;clip-rule:evenodd;fill:#AD9056;" points="36.35,2.9 37.1,9.55 36.75,9.55 36.75,9.3 35.8,2.9 
					"/>
		<path style="fill-rule:evenodd;clip-rule:evenodd;fill:#AD9056;" d="M23.85,5.55l-0.4-2.65h1.75c-0.1,0.667-0.267,1.684-0.5,3.05
			c-0.2,1.2-0.317,2.216-0.35,3.05C24.35,8.533,24.183,7.383,23.85,5.55z"/>
		<path style="fill-rule:evenodd;clip-rule:evenodd;fill:#AD9056;" d="M45.5,2.9l0.25,6.65h-0.9c-0.267-1.9-0.45-3.6-0.55-5.1V2.9
			H45.5z"/>
		<path style="fill-rule:evenodd;clip-rule:evenodd;fill:#AD9056;" d="M46.8,2.9h0.9c-0.267,1.667-0.566,3.233-0.9,4.7
			c0.066-0.9,0.066-2.133,0-3.7V2.9z"/>
		<path style="fill-rule:evenodd;clip-rule:evenodd;fill:#AD9056;" d="M42.85,6.05V2.9h1c-0.233,3.367-0.434,5.583-0.6,6.65h-0.5
			C42.817,7.85,42.85,6.683,42.85,6.05z"/>
		<polygon style="fill-rule:evenodd;clip-rule:evenodd;fill:#AD9056;" points="61.9,3.55 61.5,2.9 61.9,2.9 		"/>
		<path style="fill-rule:evenodd;clip-rule:evenodd;fill:#AD9056;" d="M62.7,4.9l-0.101-2H64c-0.167,0.8-0.083,2,0.25,3.6l0.1,3.05
			H63.15c0.066-1.466-0.017-2.75-0.25-3.85L62.7,4.9z"/>
		<path style="fill-rule:evenodd;clip-rule:evenodd;fill:#AD9056;" d="M56.3,2.9l-0.1,2.5c0,0.533-0.066,1.3-0.2,2.3
			c0.033-0.367-0.05-0.934-0.25-1.7s-0.3-1.333-0.3-1.7V3.5l0.2-0.6H56.3z"/>
		<polygon style="fill-rule:evenodd;clip-rule:evenodd;fill:#AD9056;" points="77.2,7.45 77.25,2.9 77.35,2.9 		"/>
		<path style="fill-rule:evenodd;clip-rule:evenodd;fill:#AD9056;" d="M74.65,2.9L74.1,6.95c0.067-1.5,0.051-2.85-0.05-4.05H74.65z"
			/>
		<path style="fill-rule:evenodd;clip-rule:evenodd;fill:#AD9056;" d="M75.6,2.9h0.15c0.134,2.533,0.583,4.55,1.35,6.05l-0.05,0.6
			H76.2l0.05-1.25C76.217,7.5,76,5.7,75.6,2.9z"/>
		<path style="fill-rule:evenodd;clip-rule:evenodd;fill:#AD9056;" d="M72.65,6.75l-0.2,2.8H71.6c0.034-1.066,0.051-1.633,0.051-1.7
			c0-0.667-0.134-1.2-0.4-1.6c-0.2-0.267-0.316-0.433-0.35-0.5c-0.101-0.133-0.167-0.333-0.2-0.6C70.6,4.483,70.583,3.733,70.65,2.9
			h0.899c-0.066,2.3,0.167,3.95,0.7,4.95L72.65,6.75z"/>
		<path style="fill-rule:evenodd;clip-rule:evenodd;fill:#AD9056;" d="M85.35,8.9l0.351,1.2l0.1,6.7l-0.55-6.5
			c-0.233-2.633-0.616-5.017-1.15-7.15L84.05,2.9h0.3c0.034,0.267,0.184,1.267,0.45,3C84.967,7.1,85.15,8.1,85.35,8.9z"/>
		<path style="fill-rule:evenodd;clip-rule:evenodd;fill:#AD9056;" d="M86.85,11.3l0.101-2.75l0.5,4.35
			c0.3,2.967,0.45,6.383,0.45,10.25L87.4,40.9c-0.034,0.5-0.134,1.25-0.301,2.25l-0.05,0.7l-0.1-3.55
			c0.166-1.767,0.267-3.483,0.3-5.15l-0.3,4.35l-0.2,3.4l-0.05,0.3l-0.05-17.9c-0.267-1.767-0.483-3.8-0.65-6.1
			c-0.134-2.934-0.2-5.15-0.2-6.65l-0.05-2.15c0.434,1.2,0.684,2.2,0.75,3c0.1,0.934,0.1,2.383,0,4.35c0,0.233,0.033,0.617,0.1,1.15
			c0.051,0.235,0.084,0.452,0.101,0.65C86.706,16.783,86.756,14.033,86.85,11.3z"/>
		<polygon style="fill-rule:evenodd;clip-rule:evenodd;fill:#AD9056;" points="86.7,43.3 86.95,40.35 87,45.55 86.7,43.9 		"/>
		<path style="fill-rule:evenodd;clip-rule:evenodd;fill:#AD9056;" d="M88.2,7.45c0.123,1.223,0.206,2.623,0.25,4.2
			C88.406,10.073,88.323,8.673,88.2,7.45C88.146,6.821,88.08,6.237,88,5.7c-0.066-0.3-0.134-1.233-0.2-2.8h0.15L88.2,7.45z"/>
		<path style="fill-rule:evenodd;clip-rule:evenodd;fill:#AD9056;" d="M88.05,61.95l0.101,2.3c0,0.033,0.05,5.95,0.149,17.75
			c-0.166,1.967-0.184,4.517-0.05,7.65L88,96.3c-0.033,0.7-0.167,1.9-0.4,3.601c-0.199,1.533-0.316,2.733-0.35,3.6
			c0-2.566,0.033-4.5,0.1-5.8L87,101.5c-0.233,3.566-0.384,7.083-0.45,10.55h-0.5l-0.25-0.55c-0.066-0.3-0.083-0.733-0.05-1.3
			c0.033-0.634,0.05-1.066,0.05-1.3c-0.066-2.867,0.05-5.617,0.351-8.25c0.066-0.634,0.316-2.233,0.75-4.801
			c0.333-1.933,0.5-3.55,0.5-4.85V62.5l0.25,0.5C87.917,62.934,88.05,62.583,88.05,61.95z"/>
		<path style="fill-rule:evenodd;clip-rule:evenodd;fill:#AD9056;" d="M86,54l-0.15,2.7l-0.05,0.2c-0.1-2.4-0.25-4.767-0.45-7.1
			l-0.1-2.35L86,54z"/>
		<path style="fill-rule:evenodd;clip-rule:evenodd;fill:#AD9056;" d="M85.8,56.9l-0.6,9.7l0.05-2.699
			C85.25,61.1,85.434,58.767,85.8,56.9z"/>
		<polygon style="fill-rule:evenodd;clip-rule:evenodd;fill:#AD9056;" points="84.25,40.5 83.8,37 83.8,34.45 		"/>
		<polygon style="fill-rule:evenodd;clip-rule:evenodd;fill:#AD9056;" points="86.15,55.25 86,56 86,54.1 		"/>
		<path style="fill-rule:evenodd;clip-rule:evenodd;fill:#AD9056;" d="M84.05,68.75c0.134,2.033,0.2,4.55,0.2,7.55
			c-0.033,1.667-0.066,4.167-0.1,7.5c0.066,4.134,0.033,6.983-0.101,8.55c-0.066,0.733-0.149,1.233-0.25,1.5v-28.8L84.05,68.75z"/>
		<path style="fill-rule:evenodd;clip-rule:evenodd;fill:#AD9056;" d="M84.15,93.8v-0.024V93.8l0.35-10.2v1.25
			c0.033,0.067,0.05,0.483,0.05,1.25C84.583,86.9,84.7,87.333,84.9,87.4c0.3,11,0.399,18.333,0.3,22v2.649h-0.25l-0.05-4.2
			c0-4.166-0.117-7.3-0.351-9.399c-0.214-1.878-0.347-3.319-0.399-4.325V110.6l-0.4-5.199h0.05l0.351-11.275"/>
		<path style="fill-rule:evenodd;clip-rule:evenodd;fill:#AD9056;" d="M89.35,106.4l0.301,1.85c0.3,1.934,0.583,3.184,0.85,3.75
			v0.05h-0.55l-0.05-0.3C89.6,110.184,89.417,108.4,89.35,106.4z"/>
		<path style="fill-rule:evenodd;clip-rule:evenodd;fill:#AD9056;" d="M89,51.3c0.167,3.067,0.35,7.65,0.55,13.75
			c-0.133,0.767-0.267,1.983-0.399,3.65L89,51.3z"/>
		<path style="fill-rule:evenodd;clip-rule:evenodd;fill:#AD9056;" d="M78.25,105.9c0.033,0.166,0.033,0.433,0,0.8
			c0,0.333,0.066,0.583,0.2,0.75L78.4,110.1c0,0.134,0.033,0.483,0.1,1.051c0,0.533-0.134,0.816-0.4,0.85
			c-0.333-2-0.55-4.2-0.649-6.6h0.7L78.25,105.9z"/>
		<path style="fill-rule:evenodd;clip-rule:evenodd;fill:#AD9056;" d="M75.35,107.35c-0.166,1.067-0.316,2.634-0.449,4.7h-0.25
			c-0.2-2.967-0.384-5.149-0.551-6.55v-0.1H75l0.5,1.25L75.35,107.35z"/>
		<path style="fill-rule:evenodd;clip-rule:evenodd;fill:#AD9056;" d="M68.9,105.5v-0.1h1.05c0,2.199,0.017,3.5,0.05,3.899
			c0.2-0.467,0.35-1.1,0.45-1.899c0.1-0.934,0.166-1.601,0.2-2h0.05c-0.134,2-0.2,4.216-0.2,6.649h-0.6L68.9,105.5z"/>
		<path style="fill-rule:evenodd;clip-rule:evenodd;fill:#AD9056;" d="M61.6,105.4h0.65l0.3,1.55l0.05,2.55
			C62.533,108.733,62.2,107.366,61.6,105.4z"/>
		<path style="fill-rule:evenodd;clip-rule:evenodd;fill:#AD9056;" d="M57.1,105.4h0.15c0.066,0.333,0.1,0.899,0.1,1.699L57.1,105.4
			z"/>
		<path style="fill-rule:evenodd;clip-rule:evenodd;fill:#AD9056;" d="M58.15,111l0.85-5.6h0.1l0.15,3.3
			c0.066,0.767,0.1,1.883,0.1,3.35h-1L58.15,111z"/>
		<path style="fill-rule:evenodd;clip-rule:evenodd;fill:#AD9056;" d="M44.85,112.05l-0.4-6.649h0.75c0,2.133,0.017,3.416,0.05,3.85
			c0,1.467,0.133,2.4,0.4,2.8H44.85z"/>
		<path style="fill-rule:evenodd;clip-rule:evenodd;fill:#AD9056;" d="M47.8,105.4l0.101,1.8c-0.101,0.233-0.284,0.35-0.551,0.35
			s-0.483-0.267-0.649-0.8l0.2-1.35H47.8z"/>
		<path style="fill-rule:evenodd;clip-rule:evenodd;fill:#AD9056;" d="M52.25,109.55l-0.05,0.55c-0.601-1.1-0.9-2.666-0.9-4.699h0.5
			l0.05,1.899L52.25,109.55z"/>
		<path style="fill-rule:evenodd;clip-rule:evenodd;fill:#AD9056;" d="M32.3,106.2l0.05-0.8h0.1v1.6c0,0.233,0.017,0.634,0.05,1.2
			c-0.033,0.467-0.167,0.833-0.4,1.1c-0.3-0.233-0.5-0.7-0.6-1.399c-0.067-0.801-0.117-1.317-0.15-1.551l-0.1-0.949h0.95L32.3,106.2
			z"/>
		<path style="fill-rule:evenodd;clip-rule:evenodd;fill:#AD9056;" d="M29.05,105.4h0.6l-0.1,1.85c0.034,0.333,0.083,0.9,0.15,1.7
			c0.066,0.7,0.2,1.233,0.4,1.6l0.2-2.2l0.05,3.7h-1.3V105.4z"/>
		<path style="fill-rule:evenodd;clip-rule:evenodd;fill:#AD9056;" d="M19.95,112.05l-0.2-6.649h0.3c0.1,0.466,0.133,1.083,0.1,1.85
			c-0.033,0.434-0.066,1.017-0.1,1.75c0,0.566-0.017,1.583-0.05,3.05H19.95z"/>
		<path style="fill-rule:evenodd;clip-rule:evenodd;fill:#AD9056;" d="M21.85,105.4l-0.05,6.649h-1.45
			c0.333-1.767,0.533-3.85,0.6-6.25V105.4H21.85z"/>
		<path style="fill-rule:evenodd;clip-rule:evenodd;fill:#AD9056;" d="M19.35,105.4l-0.05,6.649h-0.25L19,111.15
			c-0.133-1.7-0.2-3.617-0.2-5.75H19.35z"/>
		<polygon style="fill-rule:evenodd;clip-rule:evenodd;fill:#AD9056;" points="9.85,112.05 9.85,105.4 10.9,105.4 9.95,112.05 		"/>
		<polygon style="fill-rule:evenodd;clip-rule:evenodd;fill:#AD9056;" points="11.95,112.05 12,105.4 13.6,105.4 13.65,109.25 
			13.3,112.05 		"/>
		<path style="fill-rule:evenodd;clip-rule:evenodd;fill:#AD9056;" d="M26,105.4h1.05v0.6c-0.167,1.6-0.383,3.05-0.65,4.35
			c-0.267-0.267-0.4-0.866-0.4-1.8c0-1,0-1.633,0-1.899V105.4z"/>
		<path style="fill-rule:evenodd;clip-rule:evenodd;fill:#AD9056;" d="M7.15,62.65l-0.05,2.6l-0.25-11.8
			c0.066-0.133,0.15-0.567,0.25-1.3l0.1-2.1L7.15,62.65z M7.15,65.8v1.5V65.8z"/>
		<path style="fill-rule:evenodd;clip-rule:evenodd;fill:#AD9056;" d="M3.9,9.45c0,5.833,0.067,9.566,0.2,11.2
			c0.133,1.467,0.45,3.367,0.95,5.7c0.6,2.967,0.967,4.867,1.1,5.7l0.05,1.1c-0.067-0.7-0.25-1.583-0.55-2.65
			C5.283,29.133,5.067,28.25,5,27.85l-1.3-6.1c-0.8-4.133-1.267-7.533-1.4-10.2C2.333,7.817,2.317,5.033,2.25,3.2V2.9H3.7l0.2,0.85
			V9.45z"/>
		<path style="fill-rule:evenodd;clip-rule:evenodd;fill:#AD9056;" d="M3.55,33.9l-1.4-6.2v-0.3l0.05,0.1
			c0.466,1.667,0.917,3.483,1.35,5.45V33.9z"/>
		<path style="fill-rule:evenodd;clip-rule:evenodd;fill:#AD9056;" d="M4.8,43.25c0-1.767-0.2-3.8-0.6-6.1V36.2L5,40.95
			c0.167,1.066,0.25,2.367,0.25,3.9c-0.033,0.9-0.067,2.217-0.1,3.95c0,0.233,0.017,0.633,0.05,1.2c0,0.5-0.067,0.867-0.2,1.1
			c-0.167-1.033-0.25-2.333-0.25-3.9C4.783,45.433,4.8,44.117,4.8,43.25z"/>
		<path style="fill-rule:evenodd;clip-rule:evenodd;fill:#AD9056;" d="M5.7,82.55l-0.2,16.4c-0.067,0.7-0.233,1.75-0.5,3.149
			l-0.05,0.2L5,96.4C5.033,95.333,5.267,90.717,5.7,82.55z"/>
		<path style="fill-rule:evenodd;clip-rule:evenodd;fill:#AD9056;" d="M4.1,46.7l0.05-0.1c0.633,4.3,0.983,6.733,1.05,7.3
			c0.333,2.767,0.55,5.2,0.65,7.3c0.066,1.166,0.083,2.916,0.05,5.25c-0.033,2.333-0.033,4.066,0,5.2
			C6,73.517,6.05,77.267,6.05,82.9c0,2.233-0.05,5.583-0.15,10.05c0,1.366-0.05,2.717-0.15,4.05C5.717,90.533,5.7,85.7,5.7,82.5
			c0.133-3.467,0.2-6.083,0.2-7.85L5.5,80v-1.95c-0.1-9.5-0.15-16.616-0.15-21.35L4.1,46.7z"/>
		<path style="fill-rule:evenodd;clip-rule:evenodd;fill:#AD9056;" d="M3.75,108.3l-0.6,3.75h-1v-2.75
			c1.067-4.133,1.75-7.866,2.05-11.2L3.7,105.2c-0.133,0.267-0.2,0.8-0.2,1.6C3.5,107.634,3.583,108.134,3.75,108.3z"/>
		<path style="fill-rule:evenodd;clip-rule:evenodd;fill:#AD9056;" d="M7.15,65.8l-0.025,1.575L7.15,65.8z M7.125,69.65v-1.426
			L7.1,69.3L7.125,69.65L7.15,70.55v0.65c0.033,3.733,0.233,8.416,0.6,14.05l0.1,10.4v4.699c0,0.467-0.017,1.167-0.05,2.101
			c-0.033,0.866,0,1.566,0.1,2.1c0.2-0.1,0.3-0.316,0.3-0.649c0-0.367,0-0.634,0-0.801l0.05-5.25L8.3,95
			c0.267,5.7,0.217,11.384-0.15,17.05H6.8c0.1-1.6,0.15-2.767,0.15-3.5L7.125,69.65z"/>
		<path style="fill-rule:evenodd;clip-rule:evenodd;fill:#AD9056;" d="M3.4,69.85c0.133-3.366,0.167-7.416,0.1-12.149
			c0.467,4.833,0.667,10.149,0.6,15.95c-0.067,4.433-0.4,8.616-1,12.55c-0.033,0.233-0.083,0.7-0.15,1.399
			c-0.1,0.634-0.267,1.017-0.5,1.15c-0.034-0.1-0.133-0.517-0.3-1.25V48.35c0.467,2.533,0.783,4.433,0.95,5.7L2.8,66.4
			c0,1.066-0.083,2.716-0.25,4.949c-0.066,1.967-0.017,3.601,0.15,4.9C2.8,76.217,2.917,76,3.05,75.6
			c0.233-0.633,0.367-1.583,0.4-2.85C3.417,71.35,3.4,70.384,3.4,69.85z"/>
		<path style="fill-rule:evenodd;clip-rule:evenodd;fill:#AD9056;" d="M85.05,36.7l-0.125-13.95
			c0.291,6.587,0.449,10.404,0.476,11.45c0.033,1.2-0.017,2.95-0.15,5.25c0,0.6-0.05,1-0.15,1.2c-0.1-0.5-0.133-1.15-0.1-1.95
			C85.033,37.8,85.05,37.133,85.05,36.7z"/>
		<path style="fill-rule:evenodd;clip-rule:evenodd;fill:#8F7845;" d="M45.75,9.55L45.5,2.9h1.3v1c0.066,1.567,0.066,2.8,0,3.7
			c-0.066,0.8-0.2,1.45-0.399,1.95H45.75z"/>
		<path style="fill-rule:evenodd;clip-rule:evenodd;fill:#8F7845;" d="M62.6,2.9l0.101,2c0,0.733-0.084,1.184-0.25,1.35
			c-0.3-0.3-0.483-1.2-0.55-2.7V2.9H62.6z"/>
		<path style="fill-rule:evenodd;clip-rule:evenodd;fill:#8F7845;" d="M72.9,5.75l-0.65,2.1c-0.533-1-0.767-2.65-0.7-4.95h1.5
			L72.9,5.75z"/>
		<path style="fill-rule:evenodd;clip-rule:evenodd;fill:#8F7845;" d="M77.25,2.9l-0.1,6.2L77.1,8.95
			c-0.767-1.5-1.216-3.517-1.35-6.05H77.25z"/>
		<path style="fill-rule:evenodd;clip-rule:evenodd;fill:#8F7845;" d="M87.2,2.9l-0.351,8.4c-0.094,2.733-0.144,5.483-0.149,8.25
			c-0.017-0.198-0.05-0.415-0.101-0.65c-0.066-0.533-0.1-0.917-0.1-1.15c0.1-1.967,0.1-3.417,0-4.35c-0.066-0.8-0.316-1.8-0.75-3
			c0-2.167-0.05-3.8-0.15-4.9l0.101,4.6L85.35,8.9c-0.199-0.8-0.383-1.8-0.55-3c-0.267-1.733-0.416-2.733-0.45-3H87.2z"/>
		<path style="fill-rule:evenodd;clip-rule:evenodd;fill:#8F7845;" d="M87.4,40.9L88.3,10.2c0,9.533-0.066,23.833-0.2,42.9
			c0.034,0.967,0.067,2.417,0.101,4.35c0.033,1.7,0,3.149-0.101,4.35l-0.05,0.15c0,0.633-0.133,0.983-0.399,1.05l-0.25-0.5
			c-0.134-0.434-0.167-1.15-0.101-2.15c0.066-1.166,0.084-1.85,0.05-2.05v-0.05c-0.1-1.3-0.166-2.983-0.199-5.05
			c-0.034-2.9-0.051-4.583-0.051-5.05l-0.05-4.3l0.05-0.7C87.267,42.15,87.366,41.4,87.4,40.9z"/>
		<path style="fill-rule:evenodd;clip-rule:evenodd;fill:#8F7845;" d="M87.25,103.5v8.55h-0.7c0.066-3.467,0.217-6.983,0.45-10.55
			l0.35-3.8C87.283,99,87.25,100.934,87.25,103.5z"/>
		<path style="fill-rule:evenodd;clip-rule:evenodd;fill:#8F7845;" d="M84.15,93.775c0.026,1.012,0.16,2.57,0.399,4.675
			c0.233,2.1,0.351,5.233,0.351,9.399l0.05,4.2h-0.8V93.775z"/>
		<path style="fill-rule:evenodd;clip-rule:evenodd;fill:#8F7845;" d="M89.6,64.8c0.167,0.5,0.25,1.117,0.25,1.851L90.5,71.3V112
			c-0.267-0.566-0.55-1.816-0.85-3.75l-0.301-1.85c-0.233-1.7-0.416-3.767-0.55-6.2c-0.133-2.8-0.25-4.884-0.35-6.25l-0.2-4.3
			c-0.134-3.134-0.116-5.684,0.05-7.65l0.2-2c0.066-0.667,0.116-1.5,0.15-2.5c0-1.1,0-1.934,0-2.5c0.199-2.3,0.333-4.017,0.399-5.15
			L89.15,68.7c0.133-1.667,0.267-2.884,0.399-3.65L89.6,64.8z"/>
		<path style="fill-rule:evenodd;clip-rule:evenodd;fill:#8F7845;" d="M59,105.4l-0.85,5.6c-0.101,0.566-0.2,0.917-0.301,1.05h-0.1
			c-0.167-0.6-0.283-1.383-0.35-2.35c0-1.066-0.017-1.851-0.051-2.351v-0.25c0-0.8-0.033-1.366-0.1-1.699H59z"/>
		<path style="fill-rule:evenodd;clip-rule:evenodd;fill:#8F7845;" d="M70,109.3c-0.033-0.399-0.05-1.7-0.05-3.899h0.7
			c-0.034,0.399-0.101,1.066-0.2,2C70.35,108.2,70.2,108.833,70,109.3z"/>
		<path style="fill-rule:evenodd;clip-rule:evenodd;fill:#8F7845;" d="M46.7,106.9c-0.033,0.166-0.15,0.916-0.351,2.25
			c-0.133,0.966-0.283,1.75-0.45,2.35l-0.15,0.55h-0.1c-0.267-0.399-0.4-1.333-0.4-2.8c-0.033-0.434-0.05-1.717-0.05-3.85h1.7
			l-0.2,1.35V106.9z"/>
		<path style="fill-rule:evenodd;clip-rule:evenodd;fill:#8F7845;" d="M29.05,105.4v6.649H28.8c-0.066-0.467-0.083-1.133-0.05-2
			c0.067-1.233,0.1-1.866,0.1-1.899L29,105.4H29.05z"/>
		<path style="fill-rule:evenodd;clip-rule:evenodd;fill:#8F7845;" d="M20.95,105.4v0.399c-0.067,2.4-0.267,4.483-0.6,6.25H20
			c0.033-1.467,0.05-2.483,0.05-3.05c0.034-0.733,0.067-1.316,0.1-1.75c0.033-0.767,0-1.384-0.1-1.85H20.95z"/>
		<path style="fill-rule:evenodd;clip-rule:evenodd;fill:#8F7845;" d="M13.6,112.05V105.4h0.85
			C14.35,107.9,14.067,110.116,13.6,112.05z"/>
		<path style="fill-rule:evenodd;clip-rule:evenodd;fill:#8F7845;" d="M7.7,66.75c0.066,0.7,0.183,1.767,0.35,3.2
			c0.267,3.399,0.383,6.467,0.35,9.2c0.033,4.733,0,10.017-0.1,15.85l-0.1,8.1c0,0.167,0,0.434,0,0.801c0,0.333-0.1,0.55-0.3,0.649
			c-0.1-0.533-0.133-1.233-0.1-2.1c0.034-0.934,0.05-1.634,0.05-2.101L7.5,64.125C7.528,64.871,7.594,65.746,7.7,66.75z"/>
		<path style="fill-rule:evenodd;clip-rule:evenodd;fill:#8F7845;" d="M6.3,34.75l0.1,2.4c0.067,0.267,0.1,0.733,0.1,1.4
			c0,0.733,0.017,1.25,0.05,1.55l-0.1,2.2L6.3,34.75z"/>
		<path style="fill-rule:evenodd;clip-rule:evenodd;fill:#8F7845;" d="M6.75,40.7l0.05,0.1l0.05,0.75c0.2,1.9,0.3,3.8,0.3,5.7
			l-0.05,4.9c-0.1,0.733-0.184,1.167-0.25,1.3l-0.1,0.15L6.6,53.15L6.75,40.7z"/>
		<path style="fill-rule:evenodd;clip-rule:evenodd;fill:#8F7845;" d="M2.7,76.25c-0.167-1.3-0.217-2.934-0.15-4.9
			C2.717,69.116,2.8,67.467,2.8,66.4l0.55-23.5c0,3.267,0.05,8.2,0.15,14.8c0.067,4.733,0.033,8.783-0.1,12.149
			c0,0.534,0.017,1.5,0.05,2.9c-0.034,1.267-0.167,2.217-0.4,2.85C2.917,76,2.8,76.217,2.7,76.25z"/>
		<path style="fill-rule:evenodd;clip-rule:evenodd;fill:#8F7845;" d="M5.7,82.55C5.267,90.717,5.033,95.333,5,96.4L4.95,102.3
			c-0.034,0.467-0.083,1.184-0.15,2.15c0,1-0.167,2.083-0.5,3.25c-0.2,0.5-0.383,0.7-0.55,0.6c-0.167-0.166-0.25-0.666-0.25-1.5
			c0-0.8,0.067-1.333,0.2-1.6l2.2-30.55c0,1.749-0.066,4.333-0.2,7.75V82.55z"/>
		<path style="fill-rule:evenodd;clip-rule:evenodd;fill:#8F7845;" d="M7.75,2.9L7.3,10.8c-0.033,0.434-0.05,1.117-0.05,2.05
			c-0.033,0.833-0.133,1.5-0.3,2c-0.233-0.9-0.367-2-0.4-3.3c0.034-1.466,0.05-2.566,0.05-3.3V2.9H7.75z"/>
		<path style="fill-rule:evenodd;clip-rule:evenodd;fill:#8F7845;" d="M12.5,8.4l-0.05-5.5H13l-0.1,1.15c-0.1,2.167-0.2,3.5-0.3,4
			L12.5,8.4z"/>
		<path style="fill-rule:evenodd;clip-rule:evenodd;fill:#8F7845;" d="M19.35,2.9L18.8,7.95c-0.009-1.036-0.059-2.086-0.15-3.15V4.5
			L18.4,2.9H19.35z"/>
		<path style="fill-rule:evenodd;clip-rule:evenodd;fill:#8F7845;" d="M30.8,9.55l0.05-6.65h0.65c-0.2,1.967-0.3,2.983-0.3,3.05
			c-0.067,0.667-0.083,1.867-0.05,3.6H30.8z"/>
		<polygon style="fill-rule:evenodd;clip-rule:evenodd;fill:#8F7845;" points="37.1,9.55 36.35,2.9 38.3,2.9 38.2,9.55 		"/>
		<path style="fill-rule:evenodd;clip-rule:evenodd;fill:#8F7845;" d="M55.1,4c-0.066-0.467-0.083-0.833-0.05-1.1h0.601l-0.2,0.6
			L55.1,4z"/>
		<path style="fill-rule:evenodd;clip-rule:evenodd;fill:#8F7845;" d="M52.4,5.15C52.3,4.25,52.25,3.5,52.25,2.9h0.45
			c-0.101,2.833-0.167,4.517-0.2,5.05L52.4,9.4V5.15z"/>
		<polygon style="fill-rule:evenodd;clip-rule:evenodd;fill:#8F7845;" points="49.85,9.55 49.95,2.9 50.4,2.9 49.9,9.55 		"/>
		<path style="fill-rule:evenodd;clip-rule:evenodd;fill:#D5B77A;" d="M5.45,22.65c-0.067-0.566-0.1-1.833-0.1-3.8
			c-0.033-0.5-0.067-0.917-0.1-1.25c-0.033-0.633,0.05-1,0.25-1.1v-4.25l0.15,2.65c0.067,0.733,0.217,2.15,0.45,4.25
			c0.2,1.767,0.316,3.167,0.35,4.2L6.4,27c0,0.2,0.017,0.55,0.05,1.05c0.033,0.434-0.017,0.733-0.15,0.9
			c-0.033-0.034-0.083-0.2-0.15-0.5l-0.1-0.2c-0.167-0.7-0.283-1.633-0.35-2.8C5.6,23.95,5.517,23.017,5.45,22.65z"/>
		<path style="fill-rule:evenodd;clip-rule:evenodd;fill:#D5B77A;" d="M6.6,12.9l0.2,1.55c0.467,3.3,0.717,7.066,0.75,11.3
			c0,2.3-0.083,6.05-0.25,11.25c-0.1,2.533-0.167,3.933-0.2,4.2l-0.25-0.35L6.8,40.8l-0.05-0.1v-4.65l-0.2,4.05
			c-0.033-0.3-0.05-0.817-0.05-1.55c0-0.667-0.033-1.133-0.1-1.4L6.6,12.9z"/>
		<path style="fill-rule:evenodd;clip-rule:evenodd;fill:#D5B77A;" d="M5.8,59.9c0.067-0.733,0.1-1.184,0.1-1.351l0.85-22.5
			L6.6,59.65C6.533,60.316,6.4,60.767,6.2,61C5.933,60.934,5.8,60.566,5.8,59.9z"/>
		<path style="fill-rule:evenodd;clip-rule:evenodd;fill:#D5B77A;" d="M7.85,24.75c0.1,1.7,0.35,4.233,0.75,7.6
			c0.167,2.367,0.267,4.7,0.3,7L8.75,62c0,0.134,0.017,0.434,0.05,0.9c0,0.433-0.066,0.75-0.2,0.949c-0.033-0.199-0.05-1.199-0.05-3
			L7.85,24.75z"/>
		<path style="fill-rule:evenodd;clip-rule:evenodd;fill:#D5B77A;" d="M3.275,25.975C3.398,28.051,3.656,30.726,4.05,34l0.2,7.7
			c0,0.433,0.05,1.233,0.15,2.4c0.067,1.1-0.017,1.933-0.25,2.5L4.1,46.7l-0.05,0.2c-0.233-0.6-0.316-1.517-0.25-2.75l0.1-2
			L3.275,25.975z"/>
		<path style="fill-rule:evenodd;clip-rule:evenodd;fill:#D5B77A;" d="M6.4,72.7l0.2-13.55C6.667,61.983,6.783,66.2,6.95,71.8
			c0.066,4.9-0.034,9.117-0.3,12.65L6.3,88.85l0.3-8.5c0-0.8-0.033-2.083-0.1-3.85C6.4,74.833,6.367,73.566,6.4,72.7z"/>
		<path style="fill-rule:evenodd;clip-rule:evenodd;fill:#D5B77A;" d="M5.5,98.95l0.175-13.7C5.7,88.259,5.725,92.175,5.75,97
			l-0.2,6.4c0,0.3,0.034,1.133,0.1,2.5c-0.033,1.3-0.25,2.066-0.65,2.3c-0.067-0.233-0.05-0.55,0.05-0.95
			c0.1-0.6,0.15-0.917,0.15-0.95C5.4,104.667,5.5,102.217,5.5,98.95z"/>
		<path style="fill-rule:evenodd;clip-rule:evenodd;fill:#D5B77A;" d="M5.35,66.95c0,2.066-0.067,5.133-0.2,9.2
			c0,0.066-0.2,2.683-0.6,7.85L5.35,66.95z"/>
		<path style="fill-rule:evenodd;clip-rule:evenodd;fill:#D5B77A;" d="M9.65,105.4l0.05,6.649H9.4c0.033-1.1,0.05-1.833,0.05-2.2
			V105.4H9.65z"/>
		<path style="fill-rule:evenodd;clip-rule:evenodd;fill:#D5B77A;" d="M15.05,109.25c0,0.333,0.017,1.267,0.05,2.8h-0.7l0.1-1.2
			c0.167-2.433,0.233-4.25,0.2-5.449h0.35V109.25z"/>
		<path style="fill-rule:evenodd;clip-rule:evenodd;fill:#D5B77A;" d="M37.6,111.15l-0.25,0.8l-0.05,0.1h-0.8l0.1-1.3
			c-0.133-1.733-0.2-3.033-0.2-3.9l0.05-1.449h1.65C38.1,108.033,37.933,109.95,37.6,111.15z"/>
		<path style="fill-rule:evenodd;clip-rule:evenodd;fill:#D5B77A;" d="M27.1,111.1c-0.1-0.899-0.117-2.6-0.05-5.1v-0.6h1.25
			l-0.35,0.8c-0.4,1.566-0.633,2.816-0.7,3.75C27.25,110.55,27.2,110.934,27.1,111.1z"/>
		<path style="fill-rule:evenodd;clip-rule:evenodd;fill:#D5B77A;" d="M32.9,106.65c-0.066,0.566-0.1,1.433-0.1,2.6l-0.2-1.7V105.4
			H33L32.9,106.65z"/>
		<path style="fill-rule:evenodd;clip-rule:evenodd;fill:#D5B77A;" d="M23.05,105.4h1l-0.4,2.649c0.1,0.233,0.05,0.4-0.15,0.5
			C23.467,107.85,23.317,106.8,23.05,105.4z"/>
		<path style="fill-rule:evenodd;clip-rule:evenodd;fill:#D5B77A;" d="M22.55,107.65l0.05,4.399h-0.05
			c0-0.333-0.05-0.883-0.15-1.649c-0.133-0.733-0.2-1.284-0.2-1.65c-0.2-1.533-0.217-2.65-0.05-3.35h0.6
			C22.617,106.4,22.55,107.15,22.55,107.65z"/>
		<path style="fill-rule:evenodd;clip-rule:evenodd;fill:#D5B77A;" d="M30.65,105.4l-0.55,5.149c-0.2-0.366-0.333-0.899-0.4-1.6
			c-0.067-0.8-0.117-1.367-0.15-1.7l0.1-1.85H30.65z"/>
		<polygon style="fill-rule:evenodd;clip-rule:evenodd;fill:#D5B77A;" points="32.35,105.4 32.3,106.2 32.2,105.4 		"/>
		<path style="fill-rule:evenodd;clip-rule:evenodd;fill:#D5B77A;" d="M48.9,105.4L48.85,106c-0.033,0.6-0.05,2.35-0.05,5.25
			l-0.6-5.85H48.9z"/>
		<path style="fill-rule:evenodd;clip-rule:evenodd;fill:#D5B77A;" d="M52.6,111.15l-0.75-3.851L51.8,105.4h1.25l-0.149,1.75
			c0,0.033-0.017,0.699-0.051,2C52.816,110.017,52.733,110.684,52.6,111.15z"/>
		<path style="fill-rule:evenodd;clip-rule:evenodd;fill:#D5B77A;" d="M62.9,108.7l-0.65-3.3h2.35
			c-0.5,1.633-0.816,3.116-0.949,4.449l-0.051,2.2H63.2C63.167,110.55,63.066,109.434,62.9,108.7z"/>
		<polygon style="fill-rule:evenodd;clip-rule:evenodd;fill:#D5B77A;" points="59.65,105.4 59.4,108.15 59.4,105.4 		"/>
		<path style="fill-rule:evenodd;clip-rule:evenodd;fill:#D5B77A;" d="M60.3,106.7l-0.149-1.3H60.8v0.55
			c0,0.434,0.033,1.083,0.101,1.95c0,0.8-0.034,1.449-0.101,1.949c-0.2-0.366-0.333-0.883-0.399-1.55
			C60.4,107.566,60.366,107.033,60.3,106.7z"/>
		<path style="fill-rule:evenodd;clip-rule:evenodd;fill:#D5B77A;" d="M68.9,105.4v4.625c-0.044-1.291-0.194-2.833-0.45-4.625H68.9z
			"/>
		<path style="fill-rule:evenodd;clip-rule:evenodd;fill:#D5B77A;" d="M71.5,110.35l-0.05,1.7h-0.4c-0.133-1.133-0.2-2.883-0.2-5.25
			L70.9,105.4h1.3L72.1,105.55c-0.3,0.4-0.466,1.184-0.5,2.351C71.566,108.533,71.533,109.35,71.5,110.35z"/>
		<polygon style="fill-rule:evenodd;clip-rule:evenodd;fill:#D5B77A;" points="75.5,106.7 75.5,106.65 75.1,105.4 75.9,105.4 
			75.55,106.65 		"/>
		<path style="fill-rule:evenodd;clip-rule:evenodd;fill:#D5B77A;" d="M77.2,105.4l-0.601,3.35c-0.233-0.267-0.366-0.8-0.399-1.6
			c-0.033-0.9-0.101-1.483-0.2-1.75H77.2z"/>
		<path style="fill-rule:evenodd;clip-rule:evenodd;fill:#D5B77A;" d="M80.7,107.2c-0.134-0.134-0.384-0.217-0.75-0.25
			c-0.367-0.066-0.634-0.066-0.8,0c-0.034,0.033-0.217,0.25-0.551,0.649l-0.149-0.149c-0.134-0.167-0.2-0.417-0.2-0.75
			c0.033-0.367,0.033-0.634,0-0.8l-0.1-0.5h4.75L82.8,107.05c-0.066,1.033-0.2,1.717-0.399,2.05c0.033-0.633-0.217-1.216-0.75-1.75
			c-0.2,0.334-0.301,0.867-0.301,1.601c0,0.767-0.066,1.3-0.199,1.6c-0.034-0.1-0.034-0.684,0-1.75C81.15,108,81,107.467,80.7,107.2
			z"/>
		<path style="fill-rule:evenodd;clip-rule:evenodd;fill:#D5B77A;" d="M86.7,43.2l0.05-0.3l-0.7,10.75l0.05-3.2
			C86.167,48.817,86.366,46.4,86.7,43.2z"/>
		<path style="fill-rule:evenodd;clip-rule:evenodd;fill:#D5B77A;" d="M86,54.1l-0.05,13.1c0,4.1-0.05,10.25-0.15,18.45
			c0,1.399-0.3,1.983-0.899,1.75c-0.2-0.067-0.317-0.5-0.351-1.301c0-0.767-0.017-1.183-0.05-1.25l0.05-8.05L86,54.1z"/>
		<path style="fill-rule:evenodd;clip-rule:evenodd;fill:#D5B77A;" d="M84.35,47.9L84.1,32.8c0.034,0.6,0.267,3.05,0.7,7.35
			c0.3,2.934,0.45,5.367,0.45,7.3l0.1,2.35c0,1.1-0.033,1.917-0.1,2.45s-0.184,0.867-0.35,1c-0.367-0.6-0.567-1.467-0.601-2.6
			C84.333,49.383,84.35,48.467,84.35,47.9z"/>
		<path style="fill-rule:evenodd;clip-rule:evenodd;fill:#D5B77A;" d="M85.8,12.55c0,1.5,0.066,3.717,0.2,6.65
			c0.1,3.7,0.15,5.566,0.15,5.6v6.7c0,0.5-0.051,0.817-0.15,0.95c-0.1-0.7-0.134-1.583-0.1-2.65c0.033-1.233,0.05-2.15,0.05-2.75
			L85.6,5.5c0.101,1.1,0.15,2.733,0.15,4.9L85.8,12.55z"/>
		<path style="fill-rule:evenodd;clip-rule:evenodd;fill:#D5B77A;" d="M88.45,11.65L88.5,9c0.7,8.633,1.05,16.067,1.05,22.3
			c0,1.2,0.033,3.034,0.101,5.5c-0.034,2.2-0.2,4.034-0.5,5.5c-0.5-1.833-0.784-4.05-0.851-6.65c0-3,0-5.25,0-6.75v-6.65
			C88.366,17.55,88.417,14.017,88.45,11.65z"/>
		<polygon style="fill-rule:evenodd;clip-rule:evenodd;fill:#D5B77A;" points="88.05,2.9 88.5,6.05 88.5,9 88.45,8.75 87.95,2.9 		
			"/>
		<path style="fill-rule:evenodd;clip-rule:evenodd;fill:#D5B77A;" d="M64.25,6.5C63.917,4.9,63.833,3.7,64,2.9h1.5v4.25
			c0,0.167,0.033,0.967,0.1,2.4h-0.5c-0.5-1.7-0.783-2.7-0.85-3V6.5z"/>
		<path style="fill-rule:evenodd;clip-rule:evenodd;fill:#D5B77A;" d="M72.85,6.05l0.051-0.3L73.05,2.9h0.75L73.75,7
			c0,0.6-0.017,0.983-0.05,1.15c-0.101,0.533-0.367,0.733-0.8,0.6C72.866,8.55,72.85,7.65,72.85,6.05z"/>
		<path style="fill-rule:evenodd;clip-rule:evenodd;fill:#D5B77A;" d="M77.55,3.2l0.15-0.3h0.75c0.066,3.467,0.05,5.684-0.05,6.65
			h-0.15c-0.033-0.033-0.116-0.267-0.25-0.7c-0.134-0.7-0.233-1.633-0.3-2.8C77.6,4.217,77.55,3.267,77.55,3.2z"/>
		<path style="fill-rule:evenodd;clip-rule:evenodd;fill:#D5B77A;" d="M56.9,3c-0.167,0-0.317,0.117-0.45,0.35V2.9h0.399L56.9,3z"/>
		<path style="fill-rule:evenodd;clip-rule:evenodd;fill:#D5B77A;" d="M56.2,5.4L56.25,4c0.066-0.3,0.134-0.517,0.2-0.65
			c0.1,1.8,0.116,3.85,0.05,6.15C56.333,7.8,56.233,6.433,56.2,5.4z"/>
		<path style="fill-rule:evenodd;clip-rule:evenodd;fill:#D5B77A;" d="M53.45,6l0.05-3.1h0.15v3.75c0,0.833-0.051,1.333-0.15,1.5
			C53.467,8.017,53.45,7.3,53.45,6z"/>
		<path style="fill-rule:evenodd;clip-rule:evenodd;fill:#D5B77A;" d="M50.4,9.55C50.366,8.117,50.333,7.033,50.3,6.3
			c0-1.3,0.117-2.35,0.351-3.15c0.066,3.2,0,5.333-0.2,6.4H50.4z"/>
		<path style="fill-rule:evenodd;clip-rule:evenodd;fill:#D5B77A;" d="M38.7,5.95c-0.1-2-0.15-3.017-0.15-3.05h2.15
			c-0.034,1.434-0.167,3.033-0.4,4.8l-0.15,1.85H39C38.867,7.85,38.767,6.65,38.7,5.95z"/>
		<path style="fill-rule:evenodd;clip-rule:evenodd;fill:#D5B77A;" d="M32.65,9.55h-0.1c0-0.1-0.15-2.316-0.45-6.65h0.55V9.55z"/>
		<path style="fill-rule:evenodd;clip-rule:evenodd;fill:#D5B77A;" d="M25.75,9.55c-0.433-1.466-0.517-3.683-0.25-6.65h0.95
			L26.2,7.6c0,0.867-0.034,1.517-0.1,1.95H25.75z"/>
		<path style="fill-rule:evenodd;clip-rule:evenodd;fill:#D5B77A;" d="M14.85,2.9L14.65,6c-0.167,1.733-0.367,2.917-0.6,3.55h-0.2
			c-0.167-0.5-0.25-0.983-0.25-1.45V7.45c-0.033-0.7-0.033-1.434,0-2.2V2.9H14.85z"/>
		<path style="fill-rule:evenodd;clip-rule:evenodd;fill:#D5B77A;" d="M10.3,2.9h0.55c-0.067,2.434-0.1,3.9-0.1,4.4
			c-0.033-0.333-0.167-1.2-0.4-2.6L10.3,2.9z"/>
		<polygon style="fill-rule:evenodd;clip-rule:evenodd;fill:#D5B77A;" points="9.85,4.2 9.8,2.9 9.85,2.9 		"/>
	</g>
	<g>
		<path style="fill-rule:evenodd;clip-rule:evenodd;fill:#AD9056;" d="M45.4,12.2l-0.2,0.7v2.35l-0.15-0.1l-1.15-0.2V11.9
			C44.667,11.967,45.167,12.067,45.4,12.2z"/>
		<path style="fill-rule:evenodd;clip-rule:evenodd;fill:#AD9056;" d="M48.75,26.05l-0.85-2.2c-0.101-3.733-0.15-7.5-0.15-11.3
			c0.066-0.233,0.233-0.417,0.5-0.55l0.5-0.2V26.05z"/>
		<path style="fill-rule:evenodd;clip-rule:evenodd;fill:#AD9056;" d="M46.45,12.15c0.233-0.7,0.467-1.117,0.7-1.25
			c0.1,0.333,0.116,0.8,0.05,1.4c-0.033,0.3-0.101,0.75-0.2,1.35v5.05c-0.033-0.534-0.167-1.1-0.4-1.7l-0.3-0.65V14.3l-0.1,1.95
			l-0.25-0.4v-2.1C45.95,13.65,46.116,13.117,46.45,12.15z"/>
		<path style="fill-rule:evenodd;clip-rule:evenodd;fill:#AD9056;" d="M11.75,54.25c0.5,0.067,1.117,0.117,1.85,0.15l1.05,0.15v0.55
			l0.25,0.5c-1.367-0.1-2.95-0.117-4.75-0.05L9.5,54.5l-0.1-0.2v-0.55h0.5C10.233,53.983,10.85,54.15,11.75,54.25z"/>
		<path style="fill-rule:evenodd;clip-rule:evenodd;fill:#AD9056;" d="M10,57.75c-0.033-0.367,1-0.6,3.1-0.7h3l1.15,0.1
			c0.267,0.1,1.217,0.367,2.85,0.8l4.4,1.2h-9.35c0.167-0.167,0.233-0.317,0.2-0.45c-0.9-0.167-1.567-0.284-2-0.35
			C11.85,58.217,10.733,58.017,10,57.75z"/>
		<path style="fill-rule:evenodd;clip-rule:evenodd;fill:#AD9056;" d="M15.55,57.05H13.1c-0.934-0.066-1.667-0.3-2.2-0.7l4.5,0.6
			c-0.408,0-0.992-0.025-1.75-0.075L15.55,57.05z"/>
		<path style="fill-rule:evenodd;clip-rule:evenodd;fill:#AD9056;" d="M80.4,54.55l0.1,1.55h-1.25c0.1-0.434,0.116-0.934,0.05-1.5
			C79.8,54.6,80.167,54.583,80.4,54.55z"/>
		<path style="fill-rule:evenodd;clip-rule:evenodd;fill:#AD9056;" d="M79.7,57.55l-2.5,1.601h-0.3c0.066-0.234,0.316-0.5,0.75-0.8
			c0.233-0.167,0.55-0.417,0.949-0.75L79.7,57.55z"/>
		<path style="fill-rule:evenodd;clip-rule:evenodd;fill:#AD9056;" d="M47.6,13.45c0-0.333,0.051-0.633,0.15-0.9
			c0,3.8,0.05,7.567,0.15,11.3L48.05,30c0.167,4.233,0.117,7.15-0.149,8.75V38.4l-0.351,2.1l-0.25,0.95
			c-0.366,1.333-0.75,1.966-1.149,1.9c-0.2-0.467-0.3-1.083-0.3-1.85c0.066-0.867,0.1-1.5,0.1-1.9c-0.034-0.5-0.05-0.883-0.05-1.15
			c0-0.467,0.067-0.85,0.2-1.15L47,22.35v14.5c0.167-1.067,0.283-1.867,0.35-2.4v-11.1c-0.033-2.2-0.033-3.85,0-4.95
			C47.35,16.467,47.434,14.817,47.6,13.45z"/>
		<path style="fill-rule:evenodd;clip-rule:evenodd;fill:#AD9056;" d="M45.9,13.8c-0.033,0.167-0.133,0.45-0.3,0.85
			c-0.133,0.3-0.2,0.6-0.2,0.9v2.625c0.017-0.283,0.05-0.591,0.1-0.925c0.133-0.767,0.217-1.333,0.25-1.7
			C45.783,14.75,45.833,14.167,45.9,13.8z M45.75,12.55c0.2,0.267,0.25,0.684,0.15,1.25l0.05-0.05l0.1,7.95L46,22.4
			c-0.067,0.9-0.267,1.567-0.6,2c-0.066-0.733-0.1-1.767-0.1-3.1c0-1.566-0.017-2.6-0.05-3.1l-0.05-5.3l0.2-0.7
			C45.533,12.233,45.65,12.35,45.75,12.55z"/>
		<path style="fill-rule:evenodd;clip-rule:evenodd;fill:#AD9056;" d="M17.95,57.25l-1.2-0.15c3.567,0.267,6.283,0.433,8.15,0.5
			c3.033,0.133,5.767,0.15,8.2,0.05l0.15,0.05c0.267,0.167,0.65,0.3,1.15,0.4C28.433,58,22.95,57.717,17.95,57.25z"/>
		<path style="fill-rule:evenodd;clip-rule:evenodd;fill:#AD9056;" d="M20.8,56c2.367,0.133,4.333,0.183,5.9,0.15l26.05,2H45.4
			l-11.15-0.9H32.8l0.1,0.25l-6,0.1c0.267-0.333,0.017-0.417-0.75-0.25l-8.75-0.3h11.85c-5.733-0.066-10.033-0.083-12.9-0.05
			c-0.434,0-0.75-0.017-0.95-0.05l-4.5-0.6V56.3c-0.3-0.2-0.55-0.45-0.75-0.75c1.8-0.066,3.383-0.05,4.75,0.05
			C16.233,55.667,18.2,55.8,20.8,56z"/>
		<path style="fill-rule:evenodd;clip-rule:evenodd;fill:#AD9056;" d="M38.9,55.6c-0.367-0.033-0.617-0.05-0.75-0.05
			c-0.233-0.033-0.417-0.117-0.55-0.25c0.333-0.133,0.717-0.15,1.15-0.05l2,0.05c0.733,0.167,1.4,0.25,2,0.25l8.9,1.1
			c3.767,0.367,9.466,0.617,17.1,0.75l-9.2-1.4c-1.2,0.067-2.733,0.033-4.6-0.1c-2.834-0.167-4.367-0.25-4.601-0.25l-7.5-0.3
			l4.55,0.1c1.6,0.033,4.1,0.1,7.5,0.2l25.6,0.45v0.05c-3.267-0.033-5.717-0.05-7.35-0.05c-2.9-0.033-5.334,0-7.301,0.1
			c0.7,0.333,1.417,0.4,2.15,0.2c3.267,0.267,6.483,0.467,9.65,0.6l2.5,0.1l-0.45,0.45L78.6,57.6
			c-7.333,0.333-15.149,0.283-23.449-0.15L50.8,57.1c-4.366-0.9-7.633-1.333-9.8-1.3l0.2,0.15L38.9,55.6z"/>
		<path style="fill-rule:evenodd;clip-rule:evenodd;fill:#AD9056;" d="M65.05,54.35L80.4,54.4v0.15
			C80.167,54.583,79.8,54.6,79.3,54.6C76.1,54.7,71.35,54.617,65.05,54.35z"/>
		<path style="fill-rule:evenodd;clip-rule:evenodd;fill:#8F7845;" d="M45.9,13.8c-0.066,0.367-0.117,0.95-0.15,1.75
			c-0.033,0.367-0.117,0.934-0.25,1.7c-0.05,0.333-0.083,0.642-0.1,0.925V15.55c0-0.3,0.067-0.6,0.2-0.9
			C45.767,14.25,45.867,13.967,45.9,13.8c0.1-0.566,0.05-0.983-0.15-1.25c-0.1-0.2-0.217-0.316-0.35-0.35
			c-0.233-0.133-0.733-0.233-1.5-0.3v-1.8h4.85v1.7l-0.5,0.2c-0.267,0.133-0.434,0.317-0.5,0.55c-0.1,0.267-0.15,0.567-0.15,0.9
			c-0.166,1.367-0.25,3.017-0.25,4.95c-0.033,1.1-0.033,2.75,0,4.95v11.1c-0.066,0.533-0.183,1.333-0.35,2.4v-23.2
			c0.1-0.6,0.167-1.05,0.2-1.35c0.066-0.6,0.05-1.066-0.05-1.4c-0.233,0.133-0.467,0.55-0.7,1.25c-0.334,0.967-0.5,1.5-0.5,1.6
			L45.9,13.8z"/>
		<path style="fill-rule:evenodd;clip-rule:evenodd;fill:#8F7845;" d="M15.35,58.7c0.033,0.133-0.033,0.283-0.2,0.45H9.4V54.3
			l0.1,0.2l0.65,1.05c0.2,0.3,0.45,0.55,0.75,0.75v0.05c0.533,0.4,1.267,0.633,2.2,0.7c-2.1,0.1-3.133,0.333-3.1,0.7
			c0.733,0.267,1.85,0.467,3.35,0.6C13.783,58.417,14.45,58.533,15.35,58.7z"/>
		<path style="fill-rule:evenodd;clip-rule:evenodd;fill:#8F7845;" d="M32.8,57.25l3.25,0.15l13.65,1.1
			c-3.066,0.333-6.633,0.333-10.7,0c-2.033-0.067-3.567-0.2-4.6-0.4c-0.5-0.1-0.883-0.233-1.15-0.4l-0.15-0.05l2.95-0.25l-3.15,0.1
			L32.8,57.25z"/>
		<path style="fill-rule:evenodd;clip-rule:evenodd;fill:#8F7845;" d="M42.85,55.35l7.5,0.3c0.233,0,1.767,0.083,4.601,0.25
			c1.866,0.133,3.399,0.167,4.6,0.1l9.2,1.4c-7.634-0.133-13.333-0.383-17.1-0.75l-8.9-1.1c-0.6,0-1.267-0.083-2-0.25
			C41.05,55.267,41.75,55.283,42.85,55.35z"/>
		<polygon style="fill-rule:evenodd;clip-rule:evenodd;fill:#8F7845;" points="83.25,54.45 83.25,56.5 81.1,56.15 80.5,56.15 
			80.5,56.1 80.4,54.4 		"/>
		<polygon style="fill-rule:evenodd;clip-rule:evenodd;fill:#8F7845;" points="83.25,57.2 83.25,59.15 77.2,59.15 79.7,57.55 
			80.15,57.1 		"/>
		<path style="fill-rule:evenodd;clip-rule:evenodd;fill:#8F7845;" d="M81.1,56.15l2.15,0.35v0.7l-5.6-0.2
			c-3.167-0.133-6.384-0.333-9.65-0.6c-0.733,0.2-1.45,0.133-2.15-0.2c1.967-0.1,4.4-0.133,7.301-0.1c1.633,0,4.083,0.017,7.35,0.05
			H81.1z"/>
		<path style="fill-rule:evenodd;clip-rule:evenodd;fill:#D5B77A;" d="M83.25,53.75v0.7l-56.85-0.1c-0.9,0-2.133,0.066-3.7,0.2
			c-1.733,0.133-2.983,0.2-3.75,0.2c-1.567,0-3-0.067-4.3-0.2L13.6,54.4c-0.733-0.033-1.35-0.083-1.85-0.15
			c-0.9-0.1-1.517-0.267-1.85-0.5H43c0.667,0.133,1.217,0.15,1.65,0.05v-0.3l1.2-0.05c0.6,0,1.516,0.017,2.75,0.05l0.15-0.05v0.3
			H83.25z"/>
		<path style="fill-rule:evenodd;clip-rule:evenodd;fill:#D5B77A;" d="M43.9,17c0.133,0.6,0.2,1.417,0.2,2.45
			c-0.033,1.267-0.033,2.083,0,2.45l0.15,2.85c0.167,1.433,0.25,3.167,0.25,5.2c0,0.233-0.017,0.6-0.05,1.1
			c0,0.434,0.033,0.784,0.1,1.05c0.267-0.367,0.434-1.05,0.5-2.05v9.65c0,1-0.066,2.466-0.2,4.4c-0.133,1.933-0.2,3.383-0.2,4.35
			l0.1,2.35h-0.6c-0.066,0.233-0.15,0.383-0.25,0.45V17z"/>
		<path style="fill-rule:evenodd;clip-rule:evenodd;fill:#D5B77A;" d="M44.65,53.8c-0.433,0.1-0.983,0.083-1.65-0.05h0.9v-0.2
			l0.75-0.05V53.8z"/>
		<path style="fill-rule:evenodd;clip-rule:evenodd;fill:#D5B77A;" d="M46.3,14.3v10.1c0,2.6-0.017,4.15-0.05,4.65
			c0,0.167-0.017,0.517-0.05,1.05c-0.066,0.467-0.167,0.8-0.3,1c-0.1-0.167-0.15-0.617-0.15-1.35L46.3,14.3z"/>
		<path style="fill-rule:evenodd;clip-rule:evenodd;fill:#D5B77A;" d="M47.2,42.7l0.7-4.3V44c-0.067,1.4-0.367,3.367-0.9,5.9
			C47.134,46.7,47.2,44.3,47.2,42.7z"/>
		<path style="fill-rule:evenodd;clip-rule:evenodd;fill:#D5B77A;" d="M45.45,57.1c-0.934-0.133-1.667-0.267-2.2-0.4
			c-0.933-0.2-1.617-0.45-2.05-0.75L41,55.8c2.167-0.033,5.434,0.4,9.8,1.3l0.351,0.05l1.05,0.25l18.7,0.75
			c-8.767,0-14.717-0.066-17.851-0.2C50.583,57.85,48.05,57.567,45.45,57.1z"/>
		<path style="fill-rule:evenodd;clip-rule:evenodd;fill:#D5B77A;" d="M55.8,58.85l5.2,0.3h-9.45C50.616,59.083,50.066,59,49.9,58.9
			c0.8-0.066,1.783-0.1,2.949-0.1C53.517,58.8,54.5,58.817,55.8,58.85z"/>
		<path style="fill-rule:evenodd;clip-rule:evenodd;fill:#D5B77A;" d="M26.9,57.6l9.15-0.2l-2.95,0.25
			c-2.434,0.1-5.167,0.083-8.2-0.05c-1.867-0.067-4.583-0.233-8.15-0.5l-1.2-0.05l-1.9-0.175c0.758,0.05,1.342,0.075,1.75,0.075
			c0.2,0.033,0.517,0.05,0.95,0.05l9.8,0.35C26.917,57.183,27.167,57.267,26.9,57.6z"/>
		<path style="fill-rule:evenodd;clip-rule:evenodd;fill:#8F7845;" d="M47.7,48.7c0.366-0.867,0.633-1.5,0.8-1.9l0.25-0.5v7.15
			L48.6,53.5c-1.233-0.033-2.149-0.05-2.75-0.05l-1.95,0.1v-2.3c0.1-0.067,0.184-0.217,0.25-0.45h0.6c0.867,0,1.467-0.133,1.8-0.4
			C46.983,50.033,47.366,49.467,47.7,48.7z"/>
	</g>
	<g>
		<linearGradient id="SVGID_13_" gradientUnits="userSpaceOnUse" x1="2.1499" y1="57.4746" x2="90.5" y2="57.4746">
			<stop  offset="0.0863" style="stop-color:#000000;stop-opacity:0.3294"/>
			<stop  offset="0.2275" style="stop-color:#000000;stop-opacity:0.3294"/>
		</linearGradient>
		<polygon style="fill-rule:evenodd;clip-rule:evenodd;fill:url(#SVGID_13_);" points="90.5,2.9 90.5,6.1 5.4,6.1 5.4,112.05 
			2.15,112.05 2.15,2.9 		"/>
	</g>
</g>
</svg>
