<?xml version="1.0" encoding="iso-8859-1"?>
<!-- Generator: Adobe Illustrator 15.1.0, SVG Export Plug-In . SVG Version: 6.00 Build 0)  -->
<!DOCTYPE svg PUBLIC "-//W3C//DTD SVG 1.1//EN" "http://www.w3.org/Graphics/SVG/1.1/DTD/svg11.dtd">
<svg version="1.1" xmlns="http://www.w3.org/2000/svg" xmlns:xlink="http://www.w3.org/1999/xlink" x="0px" y="0px" width="136.8px"
	 height="135.75px" viewBox="0 0 136.8 135.75" style="enable-background:new 0 0 136.8 135.75;" xml:space="preserve">
<symbol  id="price_x5F_tag_x5F_pt_x5F_mc">
	<g id="Layer_1_2_">
	</g>
</symbol>
<g id="Layer_2">
	<g>
		
			<radialGradient id="SVGID_1_" cx="68.4004" cy="148.4248" r="67.8191" gradientTransform="matrix(-1 0 0 -0.2602 136.8008 187.0492)" gradientUnits="userSpaceOnUse">
			<stop  offset="0" style="stop-color:#000000;stop-opacity:0.498"/>
			<stop  offset="1" style="stop-color:#000000;stop-opacity:0"/>
		</radialGradient>
		<path style="fill-rule:evenodd;clip-rule:evenodd;fill:url(#SVGID_1_);" d="M68.4,130.6c18.899,0,35.033,1.75,48.399,5.25
			c13.334,3.467,20,7.667,20,12.601c0,4.899-6.666,9.1-20,12.6c-13.399,3.467-29.533,5.2-48.399,5.2
			c-18.867,0-34.984-1.733-48.351-5.2C6.684,157.55,0,153.35,0,148.45c0-4.934,6.684-9.134,20.05-12.601
			C33.417,132.35,49.533,130.6,68.4,130.6z"/>
		
			<radialGradient id="SVGID_2_" cx="66.8003" cy="147.875" r="45.9693" gradientTransform="matrix(-1 0 0 -0.3144 133.6006 194.3649)" gradientUnits="userSpaceOnUse">
			<stop  offset="0" style="stop-color:#000000;stop-opacity:0.498"/>
			<stop  offset="0.9294" style="stop-color:#000000;stop-opacity:0.0745"/>
			<stop  offset="1" style="stop-color:#000000;stop-opacity:0"/>
		</radialGradient>
		<path style="fill-rule:evenodd;clip-rule:evenodd;fill:url(#SVGID_2_);" d="M113.15,147.9c0,4.033-4.517,7.466-13.551,10.3
			c-9.066,2.833-20,4.25-32.8,4.25s-23.716-1.417-32.75-4.25c-9.066-2.834-13.6-6.267-13.6-10.3c0-4.034,4.533-7.467,13.6-10.301
			c9.034-2.866,19.95-4.3,32.75-4.3s23.733,1.434,32.8,4.3C108.634,140.434,113.15,143.866,113.15,147.9z"/>
		<g>
			<path style="fill-rule:evenodd;clip-rule:evenodd;fill:#AD6444;" d="M81.75,86.65c0.434-0.2,0.733-0.434,0.9-0.7
				c0.467,1.166,1,2.399,1.6,3.7C80.35,88.583,79.517,87.583,81.75,86.65z"/>
		</g>
		<g>
			<path style="fill-rule:evenodd;clip-rule:evenodd;fill:#BF6F44;" d="M85.8,43.65c2.601,1.667,4.05,3.934,4.351,6.8
				c0.199,1.9-1,4.85-3.601,8.85c-3.033,4.667-4.833,8.217-5.399,10.65c-0.733,3.267-0.301,7.35,1.3,12.25
				c0.8,2.434,1.667,4.55,2.6,6.35l-19.8,1.2c-0.8-3-1.517-6.35-2.15-10.05c-1.233-7.4-1.417-12.85-0.55-16.35
				c1.134-4.534,2.967-8.733,5.5-12.6c2.8-4.267,5.767-6.967,8.9-8.1C80.117,41.517,83.066,41.85,85.8,43.65z"/>
			<path style="fill-rule:evenodd;clip-rule:evenodd;fill:#CE7A47;" d="M77.1,61.25c1.7,0.533,3.551,0.583,5.551,0.15l-2.75,5.1
				c-0.367,0.633-0.551,1.467-0.551,2.5c0,0.5,0.034,0.934,0.101,1.3c-1.8-0.3-3.667-0.533-5.601-0.7
				c-1.232-0.1-2.517-0.466-3.85-1.1l-1.6-0.9c-0.101-0.167-0.167-0.467-0.2-0.9c-0.033-0.833,0.184-1.884,0.649-3.15
				c0.467-1.267,1.217-2.4,2.25-3.4c0.5-0.5,0.95-0.883,1.351-1.15c-0.267-0.367,0.05-0.267,0.95,0.3
				C74.867,60.267,76.1,60.917,77.1,61.25z"/>
			<path style="fill-rule:evenodd;clip-rule:evenodd;fill:#CE7A47;" d="M68.85,74.35l1.9,0.601c1.4,0.366,2.5,0.55,3.3,0.55
				c1.934,0,3.7-0.35,5.3-1.05l0.45,5.7c0.167,1.399,0.5,2.916,1,4.55c-1.467,0.5-2.967,0.649-4.5,0.45
				c-0.967-0.134-2.433-0.101-4.399,0.1L69.3,85.6c-0.566-2.933-1.017-5.1-1.35-6.5c-0.2-0.866-0.1-1.916,0.3-3.149L68.85,74.35z"/>
			<path style="fill-rule:evenodd;clip-rule:evenodd;fill:#CE7A47;" d="M90.15,50.45c0.133,0.866-0.017,1.9-0.45,3.1
				c-3.601,1.534-6.55,2-8.851,1.4C78.384,54.25,76.767,53,76,51.2c-0.533-1.333-0.717-3.483-0.55-6.45
				c0.033-0.6,0.184-1.15,0.45-1.65l1.05-0.45c3.167-1.133,6.116-0.8,8.85,1C88.4,45.316,89.85,47.583,90.15,50.45z"/>
			<path style="fill-rule:evenodd;clip-rule:evenodd;fill:#D47F51;" d="M82.9,42.65c1.533,0.067,2.85,0.7,3.949,1.9
				c0.801,0.9,1.4,1.983,1.801,3.25c0.533,1.867,0.399,3.284-0.4,4.25c-0.667,0.767-1.733,1.2-3.2,1.3
				c-2.666,0.167-4.649-0.434-5.95-1.8c-1.066-1.133-1.649-2.716-1.75-4.75c-0.066-1.466,0.784-2.6,2.551-3.4
				C81.167,42.833,82.167,42.583,82.9,42.65z"/>
			<path style="fill-rule:evenodd;clip-rule:evenodd;fill:#E08761;" d="M83.35,43.1c1.233,0.033,2.284,0.566,3.15,1.6
				c0.667,0.767,1.15,1.683,1.45,2.75c0.767,2.933-0.184,4.5-2.851,4.7c-2.133,0.133-3.716-0.383-4.75-1.55
				c-0.866-0.934-1.35-2.267-1.449-4c-0.033-1.233,0.649-2.184,2.05-2.85C82.017,43.25,82.816,43.033,83.35,43.1z"/>
			<path style="fill-rule:evenodd;clip-rule:evenodd;fill:#D47F51;" d="M80.05,64.15c-0.967,1.333-1.45,2.567-1.45,3.7
				c0,0.733-0.949,0.883-2.85,0.45c-1.866-0.4-3.066-1.05-3.6-1.95c-0.567-1.034-0.733-2.45-0.5-4.25l0.5-2.35l0.6,0.6
				c0.6,0.5,1.5,0.9,2.7,1.2c1.899,0.5,3.899,0.8,6,0.9C80.983,62.917,80.517,63.483,80.05,64.15z"/>
			<path style="fill-rule:evenodd;clip-rule:evenodd;fill:#E08761;" d="M76.05,61.35c1.7,0.466,3.5,0.733,5.4,0.8
				c-0.434,0.4-0.851,0.917-1.25,1.55c-0.867,1.2-1.3,2.316-1.3,3.35c0,0.667-0.733,0.617-2.2-0.15s-2.45-1.566-2.95-2.4
				c-0.533-0.934-0.816-2-0.85-3.2l0.149-1.55l0.55,0.55C74.167,60.733,74.983,61.083,76.05,61.35z"/>
			<path style="fill-rule:evenodd;clip-rule:evenodd;fill:#D47F51;" d="M69.6,75.2l1.851,0.7c1.399,0.466,2.533,0.633,3.399,0.5
				c1.4-0.2,2.5-0.551,3.301-1.051L79.35,83c-0.866,0.233-1.833,0.366-2.899,0.4c-2.167,0.1-3.75-0.284-4.75-1.15
				s-1.65-2.3-1.95-4.3L69.6,75.2z"/>
			<path style="fill-rule:evenodd;clip-rule:evenodd;fill:#E08761;" d="M70.75,75.2l1.65,0.6c1.233,0.4,2.233,0.55,3,0.45
				c1.233-0.2,2.199-0.517,2.899-0.95l1.05,6.8c-0.732,0.067-1.566,0.051-2.5-0.05c-1.866-0.166-3.232-0.649-4.1-1.45
				c-0.9-0.767-1.5-1.899-1.8-3.399L70.75,75.2z"/>
			<path style="fill-rule:evenodd;clip-rule:evenodd;fill:#E4926F;" d="M84.8,43.7c0.367-0.1,0.917,0.183,1.65,0.85
				c0.667,0.633,1.083,1.2,1.25,1.7c0.2,0.566,0.017,1.25-0.55,2.05c-0.634,0.833-1.467,1.3-2.5,1.4c-1.134,0.066-2.134-0.25-3-0.95
				c-0.9-0.7-1.267-1.417-1.101-2.15C80.917,45.1,82.333,44.133,84.8,43.7z"/>
			<path style="fill-rule:evenodd;clip-rule:evenodd;fill:#E4926F;" d="M72.35,59.2l1.551,1c1.166,0.7,2.166,1.233,3,1.6
				c1.333,0.567,3.017,0.767,5.05,0.6c-1.566,0.6-3.333,0.65-5.3,0.15c-1.2-0.333-2.283-0.983-3.25-1.95L72.35,59.2z"/>
			<path style="fill-rule:evenodd;clip-rule:evenodd;fill:#E4926F;" d="M69.6,75.2l1.801,0.6c1.366,0.4,2.517,0.601,3.449,0.601
				c1.5,0,2.801-0.25,3.9-0.75c-0.267,0.3-0.633,0.6-1.1,0.899c-0.967,0.601-1.95,0.9-2.95,0.9s-2.15-0.367-3.45-1.101L69.6,75.2z"
				/>
			<g>
				<g>
					<path style="fill-rule:evenodd;clip-rule:evenodd;fill:#B66845;" d="M73.55,44.6c-0.433,0.966-0.416,3.167,0.05,6.6
						c0.2,1.6,0.483,2.667,0.851,3.2c0.267,0.434,1.033,1.083,2.3,1.95c1.033,0.733,2.1,1.283,3.2,1.65
						c0.667,0.2,1.616,0.4,2.85,0.6c0.867,0.033,1.434,0.033,1.7,0c0.467-0.1,0.95-0.317,1.45-0.65
						c1.6-1.067,2.483-1.717,2.649-1.95c-0.433,0.8-1.066,1.833-1.899,3.1c-0.934,1.4-1.634,2.466-2.101,3.2V62
						c0.067-0.567-0.133-0.967-0.6-1.2l-0.75-0.15c-0.3,0-1.1-0.05-2.4-0.15c-0.8-0.033-1.666-0.2-2.6-0.5
						c-1.066-0.4-1.917-0.717-2.55-0.95L75.6,59.3c-0.1-0.167-0.267-0.333-0.5-0.5L74.7,58.6L74.1,58.2
						c-1.267-0.434-2.716-0.3-4.35,0.4c-2.9,1.3-3.9,4.033-3,8.2c0.2,0.833,1.283,1.867,3.25,3.101c1,0.6,1.967,1.116,2.9,1.55
						c2.267,0.434,4.6,0.8,7,1.1c0.267-0.033,0.583-0.233,0.949-0.6v2.7L80.8,74.6c-0.333-0.466-0.683-0.716-1.05-0.75
						c-0.233-0.033-0.383,0.017-0.45,0.15c-1.666,0.233-3.649,0.233-5.95,0c-1.933-0.267-3.183-0.467-3.75-0.6
						c-0.033,0-0.6-0.184-1.7-0.551c-0.566-0.166-1.066-0.116-1.5,0.15c-0.9,0.6-1.117,2.483-0.65,5.65
						c0.4,2.767,0.917,4.716,1.55,5.85c0.434,0.733,0.95,1.333,1.55,1.8c1.367,0.367,3.434,0.434,6.2,0.2
						c5.634-0.467,8.384-1.134,8.25-2c0.434,1.167,0.884,2.217,1.351,3.15C79.816,87.85,76.5,88,74.7,88.1
						c-2.566,0.134-4.983,0.184-7.25,0.15l-2.6-0.1l0.75-3.65c-0.733-0.833-1.45-1.85-2.15-3.05V81.4l-0.2-1v-0.15l-0.2-0.95v-0.2
						L62.7,77v-0.25l-0.15-1v-0.2l-0.15-1.1V74.35L62.15,72l-0.1-4.45l0.05-0.45v-0.6l0.15-1.4l0.7-3.25l1.25-3.55l2.35-5.05
						l3.3-4.95l0.051-0.1l1.6-1.8L73.55,44.6z"/>
				</g>
			</g>
			<path style="fill-rule:evenodd;clip-rule:evenodd;fill:#AB6346;" d="M78.3,59.05c1.334,0.3,2.95,0.45,4.851,0.45
				c2.033,0,3.366-0.217,4-0.65c-0.867,1.033-1.4,1.7-1.601,2c-0.366-0.233-0.833-0.383-1.399-0.45c-1.2,0.067-2.601-0.017-4.2-0.25
				c-3.167-0.5-5.733-1.5-7.7-3c-2.066-1.566-3.983-1.117-5.75,1.35c-1.434,2.033-2.184,4.1-2.25,6.2
				c-0.033,1.3,0.483,2.6,1.55,3.899c0.934,1.134,1.917,1.884,2.95,2.25c2,0.767,4.517,1.301,7.55,1.601
				c1.533,0.133,3.05,0.2,4.55,0.2L80.8,73c-0.399,0.233-1.233,0.35-2.5,0.35c-1.5,0.034-3.149-0.1-4.95-0.399
				c-3.232-0.566-5.133-0.884-5.7-0.95c-1.5-0.167-2.4-0.05-2.7,0.35c-0.4,0.5-0.583,2.301-0.55,5.4c0,3.2,0.284,5.217,0.85,6.05
				c0.833,1.2,1.25,2.584,1.25,4.15l-1.65,0.2c-1.3-2-2.217-5.767-2.75-11.301c-0.534-5.6-0.383-10.1,0.45-13.5
				c0.667-2.6,1.817-5.5,3.45-8.7c1.6-3.2,3.25-5.85,4.95-7.95c0.133,2.033,0.217,3.3,0.25,3.8c0.2,1.767,0.517,2.9,0.95,3.4
				c0.467,0.533,1.3,1.5,2.5,2.9C75.85,58.033,77.066,58.783,78.3,59.05z"/>
			<path style="fill-rule:evenodd;clip-rule:evenodd;fill:#E4926F;" d="M76.75,76.95l2-1.3l0.15,0.399
				c0.133,0.4,0.233,0.884,0.3,1.45c0.167,0.9,0.217,2.733,0.149,5.5c-0.699-1.4-1.199-2.6-1.5-3.6
				c-0.199-0.601-0.433-1.184-0.699-1.75L76.75,76.95z"/>
			<path style="fill-rule:evenodd;clip-rule:evenodd;fill:#E4926F;" d="M78.9,62.65l2.55-0.2l-1.55,2.9
				c-0.233,0.533-0.467,1.367-0.7,2.5c-0.134,0.567-0.233,1.083-0.3,1.55c-0.533-1.734-0.767-3.05-0.7-3.95
				c0.033-0.567,0.167-1.2,0.399-1.9L78.9,62.65z"/>
			<path style="fill-rule:evenodd;clip-rule:evenodd;fill:#995744;" d="M69.85,48.3c0.134,2.767-0.1,4.6-0.699,5.5
				c-0.301,0.467-1.45,2.167-3.45,5.1c-1.8,3.633-2.517,7.867-2.15,12.7c0.367,4.767,0.967,8.917,1.8,12.45
				c0.433,1.8,0.816,3.101,1.15,3.9l-3.1-1.15c-0.367-2.333-0.683-5.017-0.95-8.05c-0.567-6.066-0.6-10.817-0.1-14.25
				c0.5-3.4,1.9-7.117,4.2-11.15C67.717,51.316,68.816,49.633,69.85,48.3z"/>
		</g>
		<g>
			<path style="fill-rule:evenodd;clip-rule:evenodd;fill:#BF6F44;" d="M8.8,71.45c-0.033-4.667,0.717-9.184,2.25-13.55
				c1.667-4.833,3.867-8.183,6.6-10.05c2.767-1.9,5.7-2.317,8.8-1.25c2.933,1,4.9,2.85,5.9,5.55c0.7,1.8,0.267,4.95-1.3,9.45
				c-1.8,5.267-2.667,9.15-2.6,11.65c0.066,3.333,1.483,7.184,4.25,11.55c1.366,2.2,2.733,4.05,4.1,5.55l-18.9,6
				c-1.5-2.699-3.017-5.767-4.55-9.199C10.316,80.283,8.8,75.05,8.8,71.45z"/>
			<path style="fill-rule:evenodd;clip-rule:evenodd;fill:#CE7A47;" d="M26.85,74.05c-1.8,0.167-3.667,0.4-5.6,0.7
				c-1.233,0.2-2.566,0.167-4-0.1l-1.75-0.5c-0.167-0.134-0.3-0.4-0.4-0.801c-0.267-0.8-0.317-1.883-0.15-3.25
				c0.133-1.333,0.566-2.616,1.3-3.85c0.367-0.6,0.717-1.083,1.05-1.45c-0.333-0.267-0.017-0.233,0.95,0.1
				c1.667,0.567,3.033,0.883,4.1,0.95c1.8,0.1,3.617-0.317,5.45-1.25l-1.45,5.65C26.017,71.384,26.184,72.65,26.85,74.05z"/>
			<path style="fill-rule:evenodd;clip-rule:evenodd;fill:#CE7A47;" d="M17.6,80.6l1.95,0.051c1.467,0.033,2.583-0.051,3.35-0.25
				c1.9-0.467,3.534-1.25,4.9-2.351l1.85,5.45c0.467,1.3,1.15,2.7,2.05,4.2c-1.267,0.833-2.684,1.333-4.25,1.5
				c-0.967,0.133-2.367,0.533-4.2,1.2L20.8,91.35L17.9,85.4c-0.4-0.801-0.566-1.851-0.5-3.15L17.6,80.6z"/>
			<path style="fill-rule:evenodd;clip-rule:evenodd;fill:#CE7A47;" d="M32.35,52.15c0.333,0.9,0.45,1.95,0.35,3.15
				c-3.034,2.367-5.784,3.534-8.25,3.5c-2.567-0.066-4.434-0.883-5.6-2.45c-0.833-1.133-1.55-3.167-2.15-6.1
				c-0.1-0.6-0.1-1.167,0-1.7l0.95-0.7c2.767-1.9,5.7-2.317,8.8-1.25C29.383,47.6,31.35,49.45,32.35,52.15z"/>
			<path style="fill-rule:evenodd;clip-rule:evenodd;fill:#D47F51;" d="M23.4,46.35c1.534-0.3,2.967,0,4.3,0.9
				c1.033,0.667,1.883,1.583,2.55,2.75c0.967,1.667,1.184,3.066,0.65,4.2c-0.433,0.9-1.367,1.583-2.8,2.05
				c-2.5,0.8-4.567,0.7-6.2-0.3c-1.333-0.833-2.283-2.217-2.85-4.15c-0.433-1.4,0.117-2.716,1.65-3.95
				C21.733,47.017,22.633,46.517,23.4,46.35z"/>
			<path style="fill-rule:evenodd;clip-rule:evenodd;fill:#E08761;" d="M23.95,46.7c1.233-0.233,2.383,0.017,3.45,0.75
				c0.833,0.566,1.534,1.35,2.1,2.35c1.467,2.667,0.917,4.417-1.65,5.25c-2,0.667-3.65,0.567-4.95-0.3
				c-1.066-0.733-1.85-1.917-2.35-3.55c-0.366-1.2,0.05-2.3,1.25-3.3C22.667,47.2,23.383,46.8,23.95,46.7z"/>
			<path style="fill-rule:evenodd;clip-rule:evenodd;fill:#D47F51;" d="M22.85,73c-1.934,0.066-3.267-0.267-4-1
				c-0.867-0.866-1.4-2.184-1.6-3.95L17.2,65.6l0.7,0.45c0.733,0.3,1.717,0.45,2.95,0.45c1.966,0.033,3.983-0.167,6.05-0.6l-0.95,2
				c-0.6,1.567-0.767,2.883-0.5,3.95C25.617,72.583,24.75,72.967,22.85,73z"/>
			<path style="fill-rule:evenodd;clip-rule:evenodd;fill:#E08761;" d="M23.3,71.4c-1.6-0.367-2.733-0.9-3.4-1.601
				c-0.767-0.767-1.3-1.733-1.6-2.9l-0.25-1.55l0.65,0.45c0.667,0.267,1.55,0.4,2.65,0.4c1.767,0.033,3.583-0.15,5.45-0.55
				l-0.85,1.8c-0.534,1.434-0.684,2.633-0.45,3.6C25.667,71.684,24.934,71.8,23.3,71.4z"/>
			<path style="fill-rule:evenodd;clip-rule:evenodd;fill:#D47F51;" d="M18.55,81.2l1.95,0.25c1.467,0.066,2.6-0.066,3.4-0.4
				c1.333-0.533,2.317-1.133,2.95-1.8l3.05,7.1c-0.8,0.434-1.716,0.801-2.75,1.101c-2.033,0.633-3.65,0.649-4.85,0.05
				c-1.2-0.6-2.183-1.833-2.95-3.7L18.55,81.2z"/>
			<path style="fill-rule:evenodd;clip-rule:evenodd;fill:#E08761;" d="M19.6,80.9l1.75,0.199c1.3,0.101,2.316,0,3.05-0.3
				c1.133-0.467,2-1,2.6-1.6l2.7,6.3c-0.7,0.267-1.517,0.467-2.45,0.6c-1.867,0.267-3.316,0.134-4.35-0.399
				c-1.066-0.533-1.933-1.5-2.6-2.9L19.6,80.9z"/>
			<path style="fill-rule:evenodd;clip-rule:evenodd;fill:#E4926F;" d="M25.5,46.95c0.367-0.167,0.967-0.017,1.8,0.45
				c0.8,0.434,1.35,0.883,1.65,1.35c0.333,0.5,0.316,1.183-0.05,2.05c-0.4,1-1.1,1.667-2.1,2c-1.066,0.333-2.116,0.284-3.15-0.15
				c-1-0.467-1.517-1.083-1.55-1.85C22.1,49.3,23.233,48.017,25.5,46.95z"/>
			<path style="fill-rule:evenodd;clip-rule:evenodd;fill:#E4926F;" d="M17.25,65l1.7,0.6c1.333,0.433,2.45,0.716,3.35,0.85
				c1.434,0.2,3.117-0.034,5.05-0.7c-1.367,1-3.067,1.483-5.1,1.45c-1.267-0.034-2.483-0.4-3.65-1.1L17.25,65z"/>
			<path style="fill-rule:evenodd;clip-rule:evenodd;fill:#E4926F;" d="M18.55,81.2l1.85,0.149c1.434,0.034,2.6-0.066,3.5-0.3
				c1.467-0.366,2.667-0.916,3.6-1.649c-0.2,0.366-0.483,0.75-0.85,1.149c-0.767,0.8-1.633,1.316-2.6,1.55
				c-0.966,0.267-2.183,0.2-3.65-0.199L18.55,81.2z"/>
			<g>
				<g>
					<path style="fill-rule:evenodd;clip-rule:evenodd;fill:#B66845;" d="M11.3,57.1l0.85-2l0.05-0.15l0.65-1.3l1.95-3.05
						c-0.167,1,0.4,3.117,1.7,6.35c0.6,1.5,1.15,2.466,1.65,2.9c0.333,0.333,1.217,0.783,2.65,1.35c1.767,0.667,3.917,0.9,6.45,0.7
						c0.8-0.167,1.35-0.316,1.65-0.45c0.4-0.2,0.817-0.534,1.25-1c0.367-0.4,0.817-0.884,1.35-1.45c0.367-0.4,0.6-0.75,0.7-1.05
						c-0.367,1.466-1.134,3.833-2.3,7.1l-0.05-0.35c-0.1-0.534-0.4-0.85-0.9-0.95H28.2l-2.4,0.45c-0.767,0.2-1.65,0.25-2.65,0.15
						c-1.133-0.133-2.033-0.233-2.7-0.3v0.25c-0.167-0.133-0.384-0.25-0.65-0.35l-1.1-0.3C17.367,63.517,16,64,14.6,65.1
						c-2.534,2-2.833,4.883-0.9,8.65c0.4,0.767,1.7,1.5,3.9,2.2c1.1,0.333,2.167,0.6,3.2,0.8c2.3-0.134,4.65-0.35,7.05-0.65
						c0.267-0.066,0.533-0.333,0.8-0.8l0.25,1.3l0.05,0.051l0.35,1.3l-0.1-0.101c-0.434-0.333-0.817-0.483-1.15-0.449
						c-0.233,0.033-0.383,0.116-0.45,0.25c-1.534,0.666-3.45,1.149-5.75,1.449c-2,0.267-3.25,0.384-3.75,0.351
						c-0.034,0-0.633-0.017-1.8-0.05c-0.633-0.034-1.116,0.133-1.45,0.5c-0.7,0.8-0.434,2.666,0.8,5.6
						c1.067,2.6,2.034,4.366,2.9,5.3c0.6,0.601,1.267,1.05,2,1.351c1.267,0.066,3.284-0.367,6.05-1.301c3.2-1.1,5.4-2.05,6.6-2.85
						c0.7-0.5,0.983-0.866,0.85-1.1l2.1,2.699c-1.267,0.334-4.433,1.284-9.5,2.851c-2.466,0.767-4.8,1.399-7,1.899L17.1,94.9
						l-0.15-3.7c-0.8-0.5-1.75-1.3-2.85-2.4l-0.05-0.05l-0.4-0.95L13.6,87.65L13.1,86.6l-1.3-3.1l-0.05-0.2l-0.4-1.05L11.3,82.2
						l-0.8-2.25l-0.05-0.25L10.2,78.85l-0.15-0.35l-0.5-1.8L9.1,74.65L8.8,72.3V69.9l0.25-3.15l0.1-0.6
						c0-0.333,0.05-0.683,0.15-1.05l0.05-0.55l0.65-3.1L11.3,57.1z"/>
				</g>
			</g>
			<path style="fill-rule:evenodd;clip-rule:evenodd;fill:#AB6346;" d="M11.45,65.8c-0.9,2.334-1.134,4.517-0.7,6.55
				c0.267,1.267,1.083,2.4,2.45,3.4c1.167,0.866,2.316,1.35,3.45,1.45c2.067,0.267,4.633,0.166,7.7-0.3c2.2-0.4,3.683-0.7,4.45-0.9
				l0.05,0.3c-0.333,0.334-1.117,0.667-2.35,1c-1.434,0.4-3.066,0.667-4.9,0.8c-3.233,0.233-5.15,0.4-5.75,0.5
				c-1.534,0.2-2.383,0.534-2.55,1c-0.267,0.567,0,2.351,0.8,5.351c0.8,3.133,1.583,5.017,2.35,5.649
				c1.066,0.967,1.8,2.217,2.2,3.75L17.1,94.9c-1.767-1.634-3.583-5.051-5.45-10.25c-1.9-5.301-2.85-9.7-2.85-13.2
				c-0.033-2.667,0.35-5.767,1.15-9.3c0.767-3.467,1.733-6.433,2.9-8.9c1.033,3.8,2,6.017,2.9,6.65c0.566,0.4,1.617,1.15,3.15,2.25
				c1.467,0.867,2.833,1.283,4.1,1.25c1.367-0.033,2.967-0.283,4.8-0.75c1.967-0.5,3.2-1.033,3.7-1.6
				c-0.1,0.333-0.45,1.117-1.05,2.35c-0.4-0.133-0.884-0.167-1.45-0.1c-1.133,0.367-2.517,0.617-4.15,0.75
				c-3.2,0.3-5.934-0.033-8.2-1C14.25,62.05,12.517,62.967,11.45,65.8z"/>
			<path style="fill-rule:evenodd;clip-rule:evenodd;fill:#E4926F;" d="M25.85,81.15l1.65-1.75l0.9,1.699
				c0.367,0.834,0.867,2.584,1.5,5.25c-1.033-1.166-1.816-2.199-2.35-3.1c-0.333-0.533-0.716-1.05-1.15-1.55L25.85,81.15z"/>
			<path style="fill-rule:evenodd;clip-rule:evenodd;fill:#E4926F;" d="M24.45,66.75c0.2-0.033,1.017-0.317,2.45-0.85l-0.8,3.25
				c-0.167,0.899-0.167,2.283,0,4.149c-0.934-1.533-1.483-2.75-1.65-3.649c-0.067-0.534-0.083-1.184-0.05-1.95L24.45,66.75z"/>
			<path style="fill-rule:evenodd;clip-rule:evenodd;fill:#995744;" d="M10.45,58.7l2.2-4.6l0.6,2.05
				c0.5,1.434,0.983,2.35,1.45,2.75c0.2,0.2,0.05,0.817-0.45,1.85c-1,2.1-1.583,3.367-1.75,3.8c-1.733,4.233-2.05,8.3-0.95,12.2
				c1.134,4.1,2.65,8.267,4.55,12.5c0.966,2.1,1.816,3.8,2.55,5.1L17.1,94.9c-1.233-1.767-2.517-4.034-3.85-6.801
				c-2.6-5.5-4.083-10.767-4.45-15.8C8.467,67.3,9.017,62.767,10.45,58.7z"/>
		</g>
		<g>
			<path style="fill-rule:evenodd;clip-rule:evenodd;fill:#BF6F44;" d="M35.7,79.45c-2.434-9.033-3.317-15.767-2.65-20.2
				c0.867-5.767,2.65-11.217,5.35-16.35c2.967-5.633,6.317-9.333,10.05-11.1c3.8-1.8,7.517-1.75,11.15,0.15
				c3.4,1.767,5.466,4.417,6.2,7.95c0.5,2.333-0.633,6.15-3.4,11.45c-3.233,6.133-5.05,10.75-5.45,13.85
				c-0.534,4.133,0.483,9.149,3.05,15.05c1.3,2.934,2.65,5.467,4.05,7.6L39.55,91.7C38.217,88.066,36.934,83.983,35.7,79.45z"/>
			<path style="fill-rule:evenodd;clip-rule:evenodd;fill:#CE7A47;" d="M44.85,52.65c-0.367-0.367,0.017-0.267,1.15,0.3
				c1.934,1,3.566,1.65,4.9,1.95c1.367,0.3,2.917,0.3,4.65,0c0.9-0.133,1.65-0.3,2.25-0.5l-2.85,6.65
				c-0.367,0.867-0.5,1.934-0.4,3.2c0.067,0.633,0.167,1.183,0.3,1.65c-2.267-0.167-4.617-0.233-7.05-0.2
				c-1.566,0.033-3.2-0.267-4.9-0.9l-2.05-0.95c-0.167-0.2-0.284-0.567-0.35-1.1c-0.167-1.033-0.033-2.367,0.4-4
				c0.434-1.633,1.217-3.133,2.35-4.5C43.85,53.55,44.383,53.017,44.85,52.65z"/>
			<path style="fill-rule:evenodd;clip-rule:evenodd;fill:#CE7A47;" d="M42.2,72.2l2.4,0.45c1.8,0.3,3.183,0.399,4.15,0.3
				c2.434-0.233,4.6-0.884,6.5-1.95l1.25,7.05c0.367,1.733,0.95,3.584,1.75,5.55c-1.733,0.801-3.583,1.167-5.55,1.101
				c-1.2-0.033-3,0.184-5.4,0.649l-3.2,0.75c-1.067-3.6-1.883-6.25-2.45-7.949c-0.367-1.067-0.383-2.384-0.05-3.95L42.2,72.2z"/>
			<path style="fill-rule:evenodd;clip-rule:evenodd;fill:#CE7A47;" d="M46.85,34.6c0-0.733,0.1-1.434,0.3-2.1l1.3-0.7
				c3.8-1.8,7.517-1.75,11.15,0.15c3.4,1.767,5.466,4.417,6.2,7.95c0.233,1.167,0.167,2.467-0.2,3.9
				c-4.233,2.4-7.833,3.333-10.8,2.8c-3.167-0.534-5.316-1.883-6.45-4.05C47.483,40.95,46.983,38.3,46.85,34.6z"/>
			<path style="fill-rule:evenodd;clip-rule:evenodd;fill:#D47F51;" d="M49.45,36.95c-0.267-1.833,0.65-3.35,2.75-4.55
				c1.5-0.867,2.716-1.3,3.65-1.3C57.783,31,59.5,31.633,61,33c1.133,1.033,2,2.316,2.6,3.85c0.867,2.233,0.867,4,0,5.3
				c-0.7,1.067-1.967,1.733-3.8,2c-3.267,0.533-5.8,0.017-7.6-1.55C50.7,41.333,49.783,39.45,49.45,36.95z"/>
			<path style="fill-rule:evenodd;clip-rule:evenodd;fill:#E08761;" d="M56.5,31.6c1.533-0.067,2.9,0.466,4.1,1.6
				c0.9,0.866,1.6,1.966,2.1,3.3c1.333,3.5,0.333,5.55-3,6.15c-2.6,0.4-4.634-0.05-6.1-1.35c-1.2-1.066-1.95-2.667-2.25-4.8
				c-0.2-1.533,0.533-2.8,2.2-3.8C54.75,31.967,55.733,31.6,56.5,31.6z"/>
			<path style="fill-rule:evenodd;clip-rule:evenodd;fill:#D47F51;" d="M44.55,53.6l0.8,0.7c0.833,0.534,2,0.917,3.5,1.15
				c2.433,0.4,4.966,0.533,7.6,0.4c-0.534,0.633-1.067,1.383-1.6,2.25c-1,1.8-1.434,3.4-1.3,4.8c0.067,0.934-1.1,1.25-3.5,0.95
				c-2.4-0.333-3.966-1.017-4.7-2.05c-0.867-1.2-1.267-2.933-1.2-5.2L44.55,53.6z"/>
			<path style="fill-rule:evenodd;clip-rule:evenodd;fill:#E08761;" d="M45.65,53.5l0.7,0.65c0.767,0.467,1.833,0.8,3.2,1
				c2.2,0.367,4.483,0.5,6.85,0.4c-0.466,0.567-0.933,1.25-1.4,2.05c-0.934,1.633-1.333,3.066-1.2,4.3
				c0.067,0.833-0.866,0.867-2.8,0.1c-1.9-0.767-3.217-1.65-3.95-2.65c-0.8-1.1-1.267-2.4-1.4-3.9V53.5z"/>
			<path style="fill-rule:evenodd;clip-rule:evenodd;fill:#D47F51;" d="M43.25,73.1l2.35,0.7c1.8,0.4,3.233,0.467,4.3,0.2
				c1.7-0.434,3.017-1,3.95-1.7l2.45,9.351c-1.066,0.399-2.267,0.683-3.6,0.85c-2.667,0.366-4.667,0.066-6-0.9
				c-1.367-0.966-2.35-2.666-2.95-5.1L43.25,73.1z"/>
			<path style="fill-rule:evenodd;clip-rule:evenodd;fill:#E08761;" d="M44.65,73l2.1,0.6c1.566,0.334,2.833,0.384,3.8,0.15
				c1.5-0.366,2.667-0.866,3.5-1.5l2.1,8.25c-0.933,0.167-1.983,0.25-3.15,0.25c-2.3,0.033-4.05-0.384-5.25-1.25s-2.066-2.2-2.6-4
				L44.65,73z"/>
			<path style="fill-rule:evenodd;clip-rule:evenodd;fill:#E4926F;" d="M58.3,32.15c0.467-0.133,1.184,0.167,2.15,0.9
				c0.9,0.7,1.5,1.367,1.8,2c0.3,0.667,0.133,1.517-0.5,2.55c-0.7,1.133-1.684,1.816-2.95,2.05c-1.366,0.233-2.633-0.033-3.8-0.8
				s-1.7-1.617-1.6-2.55C53.633,34.5,55.267,33.117,58.3,32.15z"/>
			<path style="fill-rule:evenodd;clip-rule:evenodd;fill:#E4926F;" d="M44.75,52.9l2,1.1c1.533,0.767,2.85,1.316,3.95,1.65
				c1.733,0.5,3.85,0.533,6.35,0.1c-0.466,0.233-1.1,0.45-1.9,0.65c-1.566,0.367-3.133,0.417-4.7,0.15
				c-1.534-0.233-2.95-0.917-4.25-2.05L44.75,52.9z"/>
			<path style="fill-rule:evenodd;clip-rule:evenodd;fill:#E4926F;" d="M43.25,73.1l2.3,0.551c1.733,0.333,3.184,0.449,4.35,0.35
				c1.867-0.2,3.45-0.667,4.75-1.4c-0.3,0.4-0.733,0.817-1.3,1.25c-1.1,0.834-2.267,1.317-3.5,1.45c-1.233,0.134-2.7-0.2-4.4-1
				L43.25,73.1z"/>
			<g>
				<g>
					<path style="fill-rule:evenodd;clip-rule:evenodd;fill:#B66845;" d="M41.4,38.1l2.2-2.65l0.85-0.8
						c-0.4,1.2-0.117,3.917,0.85,8.15c0.467,1.967,0.95,3.284,1.45,3.95c0.4,0.467,1.434,1.167,3.1,2.1
						c1.333,0.8,2.716,1.35,4.15,1.65c0.733,0.167,1.95,0.316,3.65,0.45c1-0.067,1.7-0.15,2.1-0.25c0.533-0.167,1.117-0.5,1.75-1
						c0.533-0.4,1.167-0.9,1.9-1.5c0.534-0.467,0.9-0.867,1.1-1.2c-0.767,1.733-2.15,4.517-4.15,8.35L60.3,54.9
						c-0.033-0.7-0.35-1.15-0.95-1.35l-0.9-0.15l-3,0.1c-1.034,0.1-2.134,0-3.3-0.3c-1.4-0.367-2.5-0.667-3.3-0.9l-0.05,0.35
						c-0.167-0.2-0.4-0.383-0.7-0.55l-1.35-0.6c-1.667-0.4-3.434-0.067-5.3,1c-3.5,1.933-4.417,5.433-2.75,10.5
						c0.333,1.033,1.8,2.183,4.4,3.45c1.3,0.633,2.566,1.167,3.8,1.6c2.833,0.3,5.767,0.483,8.8,0.55
						c0.366-0.1,0.733-0.383,1.1-0.85l0.1,1.65l0.05,0.1l0.2,1.65l-0.1-0.101c-0.466-0.533-0.917-0.8-1.35-0.8
						c-0.333,0-0.534,0.083-0.6,0.25c-2.133,0.5-4.583,0.733-7.35,0.7c-2.833-0.134-4.417-0.233-4.75-0.3
						c-1.033-0.2-1.767-0.351-2.2-0.45c-0.767-0.167-1.383-0.05-1.85,0.35c-1.034,0.834-1.067,3.2-0.1,7.101
						c0.833,3.399,1.7,5.75,2.6,7.05c0.533,0.733,1.267,1.434,2.2,2.1c1.667,0.3,4.233,0.134,7.7-0.5
						c4.167-0.767,7.066-1.533,8.7-2.3c0.967-0.434,1.4-0.833,1.3-1.2c0.6,1.167,1.283,2.417,2.05,3.75
						c-3.7,0.467-7.8,1.05-12.3,1.75c-3.2,0.467-6.184,0.816-8.95,1.05l-3.25,0.2l0.45-4.649c-1.133-1.067-2.15-2.233-3.05-3.5V81.6
						L35.6,79l-0.1-0.25l-0.3-1.15l-0.05-0.3l-0.3-1.1L34.8,75.85l-0.65-2.8v-0.1l-1.05-6.2l-0.25-5.25l0.2-2.25l0.9-4.5L35.7,49
						l2.85-6.4L41.4,38.1z"/>
				</g>
			</g>
			<path style="fill-rule:evenodd;clip-rule:evenodd;fill:#AB6346;" d="M44.35,50.4c-2.767-1.7-5.083-0.9-6.95,2.4
				c-1.533,2.667-2.233,5.3-2.1,7.9c0.1,1.6,0.9,3.15,2.4,4.65c1.3,1.333,2.616,2.167,3.95,2.5c2.667,0.766,5.85,1.117,9.55,1.05
				c2.267,0,4.15-0.084,5.65-0.25l0.05,0.399c-0.5,0.334-1.533,0.601-3.1,0.8c-1.833,0.2-3.9,0.2-6.2,0
				c-4.233-0.3-6.617-0.449-7.15-0.449c-1.934-0.034-3.067,0.216-3.4,0.75c-0.4,0.699-0.4,2.949,0,6.75c0.4,4,1,6.483,1.8,7.449
				c1.167,1.4,1.85,3.067,2.05,5l-2,0.45c-1.867-2.333-3.466-6.899-4.8-13.7c-1.333-6.899-1.684-12.516-1.05-16.85
				c0.5-3.3,1.567-7.033,3.2-11.2c1.6-4.167,3.35-7.667,5.25-10.5c0.7,5.034,1.483,7.967,2.35,8.8l3.45,3.35
				c1.634,1.366,3.233,2.15,4.8,2.35c1.7,0.233,3.716,0.217,6.05-0.05c2.534-0.267,4.184-0.7,4.95-1.3c-1,1.4-1.6,2.3-1.8,2.7
				c-0.466-0.233-1.05-0.367-1.75-0.4c-1.466,0.233-3.216,0.283-5.25,0.15C50.3,52.95,46.983,52.033,44.35,50.4z"/>
			<path style="fill-rule:evenodd;clip-rule:evenodd;fill:#E4926F;" d="M54.65,72.6l0.25,0.5c0.167,0.467,0.35,1.051,0.55,1.75
				c0.3,1.101,0.583,3.367,0.85,6.801c-1.066-1.667-1.833-3.084-2.3-4.25c-0.3-0.733-0.684-1.45-1.15-2.15l-0.55-0.8L54.65,72.6z"/>
			<path style="fill-rule:evenodd;clip-rule:evenodd;fill:#E4926F;" d="M53.25,56.45l3.2-0.6l-0.6,1.3
				c-0.467,1-0.817,1.85-1.05,2.55c-0.366,1.066-0.616,2.783-0.75,5.15c-0.866-2.1-1.3-3.717-1.3-4.85c-0.033-0.7,0.05-1.5,0.25-2.4
				L53.25,56.45z"/>
		</g>
		<path style="fill-rule:evenodd;clip-rule:evenodd;fill:#995744;" d="M38.1,41.35c1.667-2.534,3.267-4.383,4.8-5.55
			c-1.267,5.133-2.483,8.8-3.65,11c-2.033,3.9-3.25,6.467-3.65,7.7c-1.467,4.333-1.85,9-1.15,14c0.7,4.866,1.866,9.467,3.5,13.8
			c0.8,2.167,1.533,3.834,2.2,5l-3.45,0.05c-0.867-2.966-1.717-6.366-2.55-10.199c-1.633-7.667-2.267-13.65-1.9-17.95
			C32.85,52.4,34.8,46.45,38.1,41.35z"/>
		<g>
			<path style="fill-rule:evenodd;clip-rule:evenodd;fill:#B66845;" d="M92.25,84.5c-0.9-1.333-1.767-2.8-2.6-4.4
				c-1.7-3.199-2.434-5.433-2.2-6.699c0.434-2.2,1.116-3.817,2.05-4.851c1.6-1.833,4.316-3.017,8.15-3.55
				c3.733-0.5,7.217,1.717,10.449,6.65c2.034,3.066,3.65,6.55,4.851,10.449c0.467,1.534,0.5,2.934,0.1,4.2
				c-1.033,3.367-1.666,5.667-1.899,6.9c-1.101,5.5-1.4,9-0.9,10.5c-1.866-0.733-4.15-1.884-6.85-3.45
				C98,97.083,93.283,93.434,89.25,89.3L92.25,84.5z"/>
			<path style="fill-rule:evenodd;clip-rule:evenodd;fill:#BF6F44;" d="M91.5,75.95c-0.4-0.834-0.566-1.884-0.5-3.15
				c0.1-1.467,0.566-2.717,1.4-3.75c0.666-0.833,1.583-1.483,2.75-1.95c1.133-0.434,2.267-0.583,3.399-0.45
				c2.334,0.3,4.733,1.9,7.2,4.8c1.233,1.434,2.217,3.733,2.95,6.899c0.733,3.134,0.7,4.584-0.101,4.351
				c-0.366-0.101-1.283,0-2.75,0.3c-1.699,0.366-3.482,0.467-5.35,0.3c-2.133-0.2-4.133-1.267-6-3.2
				C93.367,78.934,92.367,77.55,91.5,75.95z"/>
			<path style="fill-rule:evenodd;clip-rule:evenodd;fill:#CE7A47;" d="M99.2,67.95c1.899,0.267,3.833,1.566,5.8,3.899
				c0.967,1.134,1.75,2.983,2.35,5.551c0.567,2.5,0.534,3.649-0.1,3.449c-0.3-0.1-1.033-0.017-2.2,0.25
				c-1.366,0.301-2.8,0.384-4.3,0.25c-2.7-0.233-5.116-2.199-7.25-5.899c-0.333-0.634-0.467-1.467-0.4-2.5
				c0.101-1.2,0.483-2.217,1.15-3.05c0.533-0.667,1.267-1.184,2.2-1.551C97.384,67.983,98.3,67.85,99.2,67.95z"/>
			<path style="fill-rule:evenodd;clip-rule:evenodd;fill:#D47F51;" d="M98.6,67.95c1.7,0.267,3.467,1.434,5.301,3.5
				c0.899,1.066,1.616,2.75,2.149,5.05c0.5,2.3,0.467,3.366-0.1,3.2c-0.267-0.101-0.934-0.033-2,0.2
				c-1.267,0.267-2.566,0.333-3.9,0.199c-2.533-0.199-4.717-1.983-6.55-5.35c-0.333-0.566-0.467-1.333-0.4-2.3
				c0.067-1.066,0.417-1.983,1.051-2.75c0.467-0.601,1.133-1.066,2-1.4C96.983,67.967,97.8,67.85,98.6,67.95z"/>
			<path style="fill-rule:evenodd;clip-rule:evenodd;fill:#E08761;" d="M97.95,67.95c1.5,0.2,3.033,1.233,4.6,3.1
				c0.767,0.9,1.384,2.367,1.851,4.4c0.467,2,0.449,2.916-0.051,2.75c-0.232-0.066-0.816,0-1.75,0.2
				c-1.066,0.233-2.199,0.3-3.399,0.199c-1.367-0.133-2.65-0.816-3.851-2.05c-0.732-0.767-1.366-1.649-1.899-2.649
				c-0.3-0.5-0.417-1.15-0.351-1.95c0.067-0.967,0.367-1.783,0.9-2.45c0.434-0.533,1.017-0.95,1.75-1.25S97.217,67.85,97.95,67.95z"
				/>
			<path style="fill-rule:evenodd;clip-rule:evenodd;fill:#BF6F44;" d="M111.25,88.65c-0.6,1.267-1.033,2.583-1.3,3.949
				c-0.4,2.2-1.15,3.801-2.25,4.801c-3.833-0.634-6.601-1.45-8.3-2.45c-0.867-0.5-1.967-1.566-3.301-3.2l-1.75-2.3L96.9,85.85
				l2.25,0.4c1.833,0.267,3.533,0.333,5.1,0.2c2.5-0.2,5.1,0.05,7.8,0.75L111.25,88.65z"/>
			<path style="fill-rule:evenodd;clip-rule:evenodd;fill:#CE7A47;" d="M109.6,88.75c-0.566,1.2-0.949,2.417-1.149,3.65
				c-0.367,1.933-0.617,3.05-0.75,3.35c-2.967-0.1-5.2-0.583-6.7-1.45c-0.767-0.467-1.783-1.333-3.05-2.6l-1.65-1.8l1.8-3.15
				l2.2,0.3c1.767,0.2,3.334,0.25,4.7,0.15c2.233-0.2,4.033-0.15,5.4,0.149L109.6,88.75z"/>
			<path style="fill-rule:evenodd;clip-rule:evenodd;fill:#D47F51;" d="M109.9,88.5c-0.467,1.167-0.801,2.233-1,3.2L108.3,95
				c-1.767-1.267-3.25-2.25-4.45-2.95c-0.6-0.366-1.433-0.767-2.5-1.2L99.95,90.3l0.55-3.399l1.8,0.1c1.434,0.033,2.684,0,3.75-0.1
				c1.767-0.167,3.267-0.117,4.5,0.149L109.9,88.5z"/>
			<path style="fill-rule:evenodd;clip-rule:evenodd;fill:#E08761;" d="M109.5,88.4c-0.7,1.066-1.116,2-1.25,2.8
				c-0.233,1.267-0.4,1.983-0.5,2.149c-0.967-0.8-1.934-1.483-2.9-2.05c-0.5-0.3-1.183-0.633-2.05-1l-1.2-0.45l-0.199-3.1l5.1-0.3
				c1.467-0.134,2.816,0.066,4.05,0.6C110.217,87.417,109.867,87.866,109.5,88.4z"/>
			<path style="fill-rule:evenodd;clip-rule:evenodd;fill:#AB6346;" d="M92.25,84.5c-0.9-1.333-1.767-2.8-2.6-4.4
				c-1.7-3.199-2.434-5.433-2.2-6.699l0.149-0.65c0.667,1.967,1.45,3.717,2.351,5.25c1.633,2.7,3.45,4.366,5.45,5
				c2.467,0.767,4.399,1.184,5.8,1.25c0.833,0.033,2.149-0.083,3.95-0.35c1.8-0.267,3.033-0.483,3.699-0.65
				c0.967-0.3,1.584-0.684,1.851-1.15c0.333-0.566,0.85-1.283,1.55-2.149l0.7,2.149c0.333,1.034,0.483,1.884,0.45,2.551
				c-0.033,0.533-0.2,1.267-0.5,2.199c-0.634-0.966-1.467-1.449-2.5-1.449c-1.434,0.033-2.551,0.05-3.351,0.05
				c-1.5,0.033-3.033,0.017-4.6-0.05c-2.033-0.233-3.3-0.367-3.8-0.4c-0.667-0.033-1.25,0.25-1.75,0.85
				c-1,1.301-1.551,2.034-1.65,2.2c-0.434,0.634-0.8,1.45-1.1,2.45l0.149,1.35c0.5,1.134,1.75,2.317,3.75,3.551
				c2.267,1.433,4.483,2.466,6.65,3.1c1.967,0.566,3.267,0.65,3.899,0.25c0.556-0.359,1.397-2.176,2.525-5.45
				c-0.849,4.382-1.207,7.498-1.075,9.351c-0.166,0.033-0.467,0.05-0.899,0.05c-0.434-0.367-1.533-0.767-3.301-1.2
				c-2.466-0.634-4.283-1.15-5.449-1.55c-5.267-1.9-9.267-5.134-12-9.7L92.25,84.5z"/>
			<path style="fill-rule:evenodd;clip-rule:evenodd;fill:#E4926F;" d="M98.6,67.95c1.101,0.6,1.801,1.066,2.101,1.399
				c0.434,0.5,0.616,1.15,0.55,1.95c-0.066,1.167-0.267,1.95-0.6,2.351c-0.434,0.533-1.283,0.8-2.551,0.8
				c-1.366,0-2.466-0.584-3.3-1.75c-0.8-1.2-0.8-2.316,0-3.351c0.7-0.866,1.434-1.366,2.2-1.5c0.4-0.034,0.717,0,0.95,0.1H98.6z"/>
			<path style="fill-rule:evenodd;clip-rule:evenodd;fill:#E4926F;" d="M98.1,86.75l3.351-0.2c2.434-0.133,4.116-0.166,5.05-0.1
				c1.5,0.1,2.8,0.399,3.9,0.899l-0.351,0.75c-0.267,0.601-0.5,1.25-0.7,1.95c-0.3,1.101-0.649,2.75-1.05,4.95
				c-0.2-3.2-0.3-5.15-0.3-5.85c0-0.5-0.25-0.851-0.75-1.051c-0.467-0.199-1.316-0.3-2.55-0.3c-1,0-2.4-0.166-4.2-0.5L98.1,86.75z"
				/>
			<path style="fill-rule:evenodd;clip-rule:evenodd;fill:#995744;" d="M88.05,75.85l2.4,3.5c1.767,2.4,3,3.784,3.7,4.15
				c1.5,0.767,1.217,2.566-0.851,5.4l-3.55,4.05l-2.5-2.5l5-5.95l-2.4-3.45c-0.633-0.934-1.133-2.083-1.5-3.45L88.05,75.85z"/>
		</g>
		<g>
			<path style="fill-rule:evenodd;clip-rule:evenodd;fill:#A25E46;" d="M97.9,153.9c-8.601,3.233-18.867,4.85-30.8,4.85
				c-13.067,0-23.667-1.384-31.8-4.15c-9.066-3.066-13.6-7.449-13.6-13.149c0-6.733,4.283-11.05,12.85-12.95
				c5-1.134,15.35-1.7,31.05-1.7c15.733,0,26.167,0.617,31.3,1.851c8.733,2.133,13.217,6.899,13.449,14.3
				C110.483,147.083,106.333,150.733,97.9,153.9z"/>
			<path style="fill-rule:evenodd;clip-rule:evenodd;fill:#E08761;" d="M96.95,151.85c-8.566,3.2-18.917,4.801-31.05,4.801
				s-22.483-1.601-31.05-4.801c-8.6-3.233-12.9-7.116-12.9-11.649s4.3-8.4,12.9-11.601c8.566-3.199,18.917-4.8,31.05-4.8
				c11.7,0,22.05,1.783,31.05,5.351c8.566,3.433,12.85,7.116,12.85,11.05C109.8,144.733,105.517,148.616,96.95,151.85z"/>
			<path style="fill-rule:evenodd;clip-rule:evenodd;fill:#E4926F;" d="M96.95,150.5c-8.566,3.066-18.917,4.6-31.05,4.6
				s-22.483-1.533-31.05-4.6c-8.6-3.033-12.9-6.717-12.9-11.05c0-4.334,4.3-8.017,12.9-11.05c8.566-3.067,18.917-4.601,31.05-4.601
				c11.7,0,22.05,1.7,31.05,5.101c8.566,3.233,12.85,6.75,12.85,10.55C109.8,143.783,105.517,147.467,96.95,150.5z"/>
			<path style="fill-rule:evenodd;clip-rule:evenodd;fill:#CE7A47;" d="M109.8,138.45c0,4.066-4.283,7.517-12.85,10.35
				c-8.566,2.867-18.917,4.3-31.05,4.3s-22.483-1.433-31.05-4.3c-8.6-2.866-12.9-6.316-12.9-10.35s4.3-7.483,12.9-10.351
				c8.566-2.866,18.917-4.3,31.05-4.3c11.7,0,22.05,1.601,31.05,4.8C105.517,131.634,109.8,134.917,109.8,138.45z"/>
			<path style="fill-rule:evenodd;clip-rule:evenodd;fill:#BF6F44;" d="M105.05,138.2c0,3.733-3.883,6.916-11.649,9.55
				c-7.801,2.634-17.2,3.95-28.2,3.95c-10.967,0-20.35-1.316-28.15-3.95c-7.767-2.634-11.65-5.816-11.65-9.55
				s3.883-6.917,11.65-9.55c7.767-2.634,17.15-3.95,28.15-3.95c10.6,0,20,1.467,28.2,4.399
				C101.167,131.9,105.05,134.934,105.05,138.2z"/>
			<path style="fill-rule:evenodd;clip-rule:evenodd;fill:#B66845;" d="M91.35,129.05c7.101,2.467,10.65,5.15,10.65,8.05
				c0,3.301-3.55,6.117-10.65,8.45c-7.066,2.334-15.616,3.5-25.649,3.5c-10.034,0-18.583-1.166-25.65-3.5
				c-7.1-2.333-10.65-5.149-10.65-8.45c0-3.3,3.55-6.116,10.65-8.449c7.067-2.334,15.617-3.5,25.65-3.5
				C75.367,125.15,83.917,126.45,91.35,129.05z"/>
			<path style="fill-rule:evenodd;clip-rule:evenodd;fill:#9B5943;" d="M93.15,134.9c7.6,2.399,10.483,4.166,8.649,5.3
				c-2.566,1.6-9.2,3.3-19.899,5.1c-11.067,1.9-18.984,2.533-23.75,1.9c-13.833-1.867-23.367-6.066-28.6-12.601
				c-1.4-1.8,2.184-3.116,10.75-3.949c8.067-0.801,17.167-0.917,27.3-0.351C76.566,130.833,85.083,132.366,93.15,134.9z"/>
		</g>
		<g>
			<path style="fill-rule:evenodd;clip-rule:evenodd;fill:#CE7A47;" d="M99.3,124.7l-0.75,8.05c-0.2,1.767-0.017,3.283,0.55,4.55
				c0.301,0.634,0.617,1.084,0.95,1.351c-6.233,1.767-12.166,3.283-17.8,4.55c-3.366,0.767-8.3,1.3-14.8,1.6l-8.8,0.2
				c-1.367-0.167-3.05-0.467-5.05-0.9c-4-0.866-7.55-1.983-10.65-3.35c-3.733-1.6-6.867-3.333-9.4-5.2l-2.7-2.35l1.15-1.5
				c0.8-1.367,1.3-2.917,1.5-4.65c0.267-2.233-0.05-4.399-0.95-6.5l-1.4-2.45l10.5,3c7.967,2.101,14.317,3.351,19.05,3.75
				C68.333,125.517,81.2,125.467,99.3,124.7z"/>
			<path style="fill-rule:evenodd;clip-rule:evenodd;fill:#AF6346;" d="M63.2,125l-0.45,6.2c-0.167,3.8-0.133,6.684,0.1,8.649
				c0.233,1.934,0.517,3.617,0.85,5.051l-5.05,0.1c-1.367-0.167-3.05-0.467-5.05-0.9c-4-0.866-7.55-1.983-10.65-3.35
				c-3.733-1.6-6.867-3.333-9.4-5.2l-2.7-2.35l1.15-1.5c0.8-1.367,1.3-2.917,1.5-4.65c0.267-2.233-0.05-4.399-0.95-6.5l-1.4-2.45
				l10.5,3c7.967,2.101,14.317,3.351,19.05,3.75L63.2,125z"/>
			<path style="fill-rule:evenodd;clip-rule:evenodd;fill:#BF6F44;" d="M99.3,124.7c-1.166,1.733-2.566,3.55-4.2,5.45
				c-3.232,3.833-5.949,6.183-8.149,7.05c-2.667,1.066-6.483,1.7-11.45,1.899c-4.934,0.2-8.05-0.149-9.35-1.05
				c-1.066-0.733-1.966-3.434-2.7-8.1l-0.8-6.8L99.3,124.7z"/>
			<g>
				<path style="fill-rule:evenodd;clip-rule:evenodd;fill:#E08761;" d="M94.5,135.55c2.5-1.133,3.833-1.899,4-2.3
					c-0.033,1.6,0.217,2.983,0.75,4.15c0.267,0.566,0.533,0.983,0.8,1.25c-6.233,1.767-12.166,3.283-17.8,4.55
					c-4.1,0.899-10.566,1.483-19.4,1.75c-0.667-1.467-0.917-2.884-0.75-4.25c0.333-2.667,0.667-6.45,1-11.351
					c-0.1,2.767,0.1,5.117,0.6,7.051c0.767,2.933,2.183,4.583,4.25,4.949c3,0.534,7.25,0.334,12.75-0.6
					c5.333-0.9,8.45-1.866,9.35-2.9C90.35,137.517,91.833,136.75,94.5,135.55z"/>
			</g>
			<path style="fill-rule:evenodd;clip-rule:evenodd;fill:#E4926F;" d="M63.1,126.1l-0.2,6.551c-0.1,4.566,0.017,7.283,0.35,8.149
				c0.5,1.367,1.684,2.717,3.55,4.05l-5,0.351c-0.5-1.533-0.733-3.5-0.7-5.9c0-1.5,0.333-4.149,1-7.95L63.1,126.1z"/>
			<path style="fill-rule:evenodd;clip-rule:evenodd;fill:#B66845;" d="M87.75,134.8c-1.333,0.967-3.5,1.5-6.5,1.601
				c-0.633,0.033-3.684-0.034-9.15-0.2c-2.699-0.066-4.95-2.184-6.75-6.351l-1.85-6.199l35-0.601
				C93.4,129.35,89.816,133.267,87.75,134.8z"/>
			<path style="fill-rule:evenodd;clip-rule:evenodd;fill:#A25C46;" d="M61.7,123.3l-0.75,1.8c-0.534,1.434-0.934,2.75-1.2,3.95
				c-0.133,0.566-0.383,2.483-0.75,5.75c-0.333,2.601-0.7,4.316-1.1,5.15c-0.466,1-2.333,1.2-5.6,0.6
				c-2.7-0.467-5.533-1.283-8.5-2.45c-5.167-2.033-8.033-3.25-8.6-3.649c-1.767-1.334-2.2-3.566-1.3-6.7
				c0.267-0.9,0.383-2.75,0.35-5.55l-0.15-3.9L61.7,123.3z"/>
			<path style="fill-rule:evenodd;clip-rule:evenodd;fill:#995744;" d="M60.9,122.15c-0.3,0.166-0.633,0.399-1,0.699
				c-0.667,0.601-1.066,1.217-1.2,1.851c-0.367,1.666-0.817,5.017-1.35,10.05c-0.233,2.1-1.934,3.116-5.1,3.05
				c-2.467-0.066-5.316-0.717-8.55-1.95c-5.867-2.199-8.7-4.566-8.5-7.1c0.066-1.134,0.417-3.15,1.05-6.05l0.95-4L60.9,122.15z"/>
			<path style="fill-rule:evenodd;clip-rule:evenodd;fill:#AB6346;" d="M99.3,124.7l-0.3,4.95c-9.9,1.3-16.667,2.133-20.3,2.5
				c-2.267,0.199-5.767,0.333-10.5,0.399h-6.45l0.3-7.85H99.3z"/>
			<path style="fill-rule:evenodd;clip-rule:evenodd;fill:#8B4F3F;" d="M63.1,126.1l-1.6,9.25c-4.8-0.5-9.85-1.6-15.15-3.3
				c-2.867-0.934-5.867-2.05-9-3.35l-3.85-1.65l0.05-7.2l3.9,1.2c2.966,0.934,5.267,1.75,6.9,2.45
				C46.983,124.566,53.233,125.434,63.1,126.1z"/>
			<path style="fill-rule:evenodd;clip-rule:evenodd;fill:#E4926F;" d="M98.65,130.95l0.25,1.6c0.199,1.267,0.333,2.467,0.399,3.601
				c0.101,0.899,0.351,1.733,0.75,2.5l-10.7,2.8c3.867-1.434,5.917-2.667,6.15-3.7L98.65,130.95z"/>
		</g>
		<g>
			<path style="fill-rule:evenodd;clip-rule:evenodd;fill:#CE7A47;" d="M34.7,88.45c0.9-0.667,1.433-1.033,1.6-1.101
				c0.3-0.1,1.884,0.15,4.75,0.75c3.534,0.7,7.5,0.95,11.9,0.75c1.667-0.066,3.9-0.399,6.7-1c2.267-0.466,3.684-0.633,4.25-0.5
				c3.833,0.801,7.567,0.95,11.2,0.45c4.4-0.633,7.417-0.883,9.051-0.75c1.199,0.101,2.633,1.283,4.3,3.55
				c2.133,2.9,4.917,5.25,8.35,7.051c1.767,0.933,4.367,1.75,7.8,2.449c2.867,0.567,4.483,1.117,4.851,1.65
				c1.866,2.467,2.8,5.884,2.8,10.25c0,4.467-1.017,7.866-3.05,10.2c-1.9,2.166-9.95,4.333-24.15,6.5
				c-12.633,1.934-22.333,2.899-29.1,2.899c-4.967,0-10.417-1.399-16.35-4.199c-4.934-2.334-9.383-5.184-13.35-8.551
				c-1.6-1.366-3.333-4.449-5.2-9.25c-1.866-4.899-3-9.399-3.4-13.5c-0.033-0.3,1.217-0.85,3.75-1.649c3.267-1,5.417-1.75,6.45-2.25
				C31.117,90.634,33.4,89.384,34.7,88.45z"/>
			<path style="fill-rule:evenodd;clip-rule:evenodd;fill:#CE7A47;" d="M34.7,88.45c0.9-0.667,1.433-1.033,1.6-1.101
				c0.3-0.1,1.884,0.15,4.75,0.75c3.534,0.7,7.5,0.95,11.9,0.75c1.667-0.066,3.9-0.399,6.7-1c2.267-0.466,3.684-0.633,4.25-0.5
				c3.833,0.801,7.567,0.95,11.2,0.45c4.4-0.633,7.417-0.883,9.051-0.75c1.199,0.101,2.633,1.283,4.3,3.55
				c2.133,2.9,4.917,5.25,8.35,7.051c1.767,0.933,4.367,1.75,7.8,2.449c2.867,0.567,4.483,1.117,4.851,1.65
				c1.833,2.467,2.75,5.417,2.75,8.85c-0.033,3.567-1.083,6.517-3.15,8.851c-2.233,2.566-10,5.45-23.3,8.649
				c-13.7,3.334-23.633,4.5-29.8,3.5c-5.367-0.866-10.784-2.483-16.25-4.85c-5.567-2.366-10.05-5-13.45-7.9
				c-1.6-1.366-3.333-4.449-5.2-9.25c-1.866-4.899-3-9.399-3.4-13.5c-0.033-0.3,1.217-0.85,3.75-1.649c3.267-1,5.417-1.75,6.45-2.25
				C31.117,90.634,33.4,89.384,34.7,88.45z"/>
			<path style="fill-rule:evenodd;clip-rule:evenodd;fill:#CE7A47;" d="M34.7,88.45c0.9-0.667,1.433-1.033,1.6-1.101
				c0.3-0.1,1.884,0.15,4.75,0.75c3.534,0.7,7.5,0.95,11.9,0.75c1.667-0.066,3.9-0.399,6.7-1c2.267-0.466,3.684-0.633,4.25-0.5
				c4.8,1,8.567,1.467,11.3,1.4c2.333-0.066,5.316-0.634,8.95-1.7c0.199-0.066,1.283,1.033,3.25,3.3
				c2.566,2.934,5.699,5.367,9.399,7.301c1.767,0.933,4.367,1.75,7.8,2.449c2.867,0.567,4.483,1.117,4.851,1.65
				c1.833,2.467,2.75,5.417,2.75,8.85c-0.033,3.567-1.083,6.517-3.15,8.851c-2.233,2.566-10,5.45-23.3,8.649
				c-13.7,3.334-23.633,4.5-29.8,3.5c-5.367-0.866-10.784-2.483-16.25-4.85c-5.567-2.366-10.05-5-13.45-7.9
				c-1.6-1.366-3.333-4.449-5.2-9.25c-1.866-4.899-3-9.399-3.4-13.5c-0.033-0.3,1.217-0.85,3.75-1.649c3.267-1,5.417-1.75,6.45-2.25
				C31.117,90.634,33.4,89.384,34.7,88.45z"/>
			<path style="fill-rule:evenodd;clip-rule:evenodd;fill:#CE7A47;" d="M34.7,88.45c0.9-0.667,1.433-1.033,1.6-1.101
				c0.3-0.1,1.884,0.15,4.75,0.75c3.534,0.7,7.5,0.95,11.9,0.75c1.667-0.066,3.9-0.399,6.7-1c2.267-0.466,3.684-0.633,4.25-0.5
				c3.833,0.801,7.567,0.95,11.2,0.45c4.4-0.633,7.417-0.883,9.051-0.75c0.333,0.033,0.35,0.517,0.05,1.45
				c-0.367,1-0.417,1.55-0.15,1.65l6.2,3.899l2.25,2.101c1.767,1.566,3.35,2.816,4.75,3.75c1.4,0.933,3.517,1.666,6.35,2.199
				c1.4,0.301,2.667,0.483,3.801,0.551c-1.467,1.166-3.134,2.383-5,3.649c-3.801,2.533-6.783,4.084-8.95,4.65
				c-3.167,0.833-7.467,1.533-12.9,2.1c-6.933,0.7-14.633,1.05-23.1,1.05c-7.767,0-16.167-3-25.2-9
				c-2.833-1.866-5.566-3.933-8.2-6.199L21,96.1l6.65-2.949c1.4-0.334,1.817-0.567,1.25-0.7l-1.05-0.25
				C31.117,90.634,33.4,89.384,34.7,88.45z"/>
			<path style="fill-rule:evenodd;clip-rule:evenodd;fill:#BF6F44;" d="M84.7,88.9c0.2,1.033,0.8,1.983,1.8,2.85l2.4,2.1
				c0.066,0.667-0.9,1.467-2.9,2.4c-4,1.833-11.116,3.366-21.35,4.6c-7.533,0.9-17.466,0.267-29.8-1.899l-15-3.275
				c0.562-0.16,1.312-0.452,2.25-0.875c2.7-1.2,4.55-1.75,5.55-1.649L33.2,94.3c4.6,0.867,9.25,1.584,13.95,2.15
				c5.133,0.633,11.517,0.416,19.15-0.65c6.9-0.967,11.15-1.983,12.75-3.05c1.8-1.2,3.667-2.9,5.601-5.1L84.7,88.9z M19.85,95.675
				c-0.458,0.128-0.791,0.17-1,0.125L18.6,95.4L19.85,95.675z"/>
			<path style="fill-rule:evenodd;clip-rule:evenodd;fill:#BF6F44;" d="M59.85,101.75c-0.3,0.1-0.684,0.4-1.15,0.9
				c-0.967,1-1.884,2.5-2.75,4.5c-0.7,1.6,1.833,3.083,7.6,4.449c2.9,0.667,5.867,1.184,8.9,1.551c-2.2,0.267-4.9,0.416-8.1,0.449
				c-6.4,0.101-12.1-0.35-17.1-1.35s-10.3-3.65-15.9-7.95l-6.9-6.149l20.7,2.1C51.35,100.85,56.25,101.35,59.85,101.75z"/>
			<path style="fill-rule:evenodd;clip-rule:evenodd;fill:#BF6F44;" d="M98.85,108.65l-12.3,3.3l6-2.65
				c3.448-2.188,3.757-4.396,0.925-6.625c0.867,0.721-3.342,0.162-12.625-1.675c-7.966-1.566-8.767-2.517-2.399-2.85
				c3.8-2.801,5.899-4.7,6.3-5.7c0.267-0.634,1.283-0.717,3.05-0.25c0.9,0.233,1.767,0.533,2.601,0.899
				c0.433-0.133,1.133,0.9,2.1,3.101c1.134,2.6,2.65,4.3,4.55,5.1c2.233,0.9,4.75,1.167,7.55,0.8c2.434-0.333,3.717-0.75,3.851-1.25
				c0.233-1,0.566-1,1,0c0.233,0.5,0.434,1.101,0.6,1.801c-0.7,0.699-1.7,1.483-3,2.35C104.45,106.7,101.717,107.917,98.85,108.65z"
				/>
			<path style="fill-rule:evenodd;clip-rule:evenodd;fill:#BF6F44;" d="M94.35,111.05c-5.232,1.134-10.166,1.934-14.8,2.4
				c-3.967,0.399-8.233,0.6-12.8,0.6c-3.5,0-7.3-1-11.4-3l-5.1-3c0.4,0,3.967,0.584,10.7,1.75c7.566,1.066,13.8,1.283,18.7,0.65
				c4.866-0.634,9.5-1.667,13.899-3.101c2.2-0.733,3.9-1.399,5.101-2l8-4.199c-0.2,1.267-0.867,2.616-2,4.05
				C102.417,108.1,98.983,110.05,94.35,111.05z"/>
			<path style="fill-rule:evenodd;clip-rule:evenodd;fill:#B66845;" d="M24.65,93.75l4.3,2.1c3.2,1.5,5.716,2.45,7.55,2.851
				c4.7,1.1,10.833,1.916,18.4,2.45c-7.167,0.366-13.55,0.35-19.15-0.051c-3.5-0.233-7.633-1.133-12.4-2.699L17.2,96.1l1.8-0.5
				C20.6,95.134,22.483,94.517,24.65,93.75z"/>
			<path style="fill-rule:evenodd;clip-rule:evenodd;fill:#B66845;" d="M82.65,85.95l1.449,0.8c1.167,0.7,2.217,1.483,3.15,2.35
				c1.967,1.801,3.017,3.134,3.15,4C89,94.7,87.5,96.2,85.9,97.6c-1,0.867-3.434,1.367-7.301,1.5l-5.55-0.05L75.8,97.4
				c2.101-1.301,3.884-2.551,5.351-3.75c1.467-1.2,2.166-2.834,2.1-4.9L82.65,85.95z"/>
			<path style="fill-rule:evenodd;clip-rule:evenodd;fill:#B66845;" d="M101.25,108.95c-2.733,1.133-6.95,2.066-12.65,2.8l-7.75,0.8
				l9.351-2.1c6-1.667,8.434-3.217,7.3-4.65c-1.6-2.066-3.9-3.533-6.9-4.399c-3.232-0.634-5.399-1.101-6.5-1.4
				c-1.366-0.366-2.566-1.134-3.6-2.3l-1.15-1.65l10.15-4l-0.35,0.45c-0.2,0.434-0.233,0.934-0.101,1.5
				c0.434,1.833,2.5,4.116,6.2,6.85c3.333,2.434,6.7,3.317,10.1,2.65c1.7-0.333,3.067-0.917,4.101-1.75
				c-0.267,0.767-0.8,1.634-1.601,2.6C106.217,106.283,104.017,107.816,101.25,108.95z"/>
			<path style="fill-rule:evenodd;clip-rule:evenodd;fill:#B66845;" d="M58.7,111.75c3.233,0.767,6.417,1.434,9.55,2
				c-2.133,0-4.717-0.083-7.75-0.25c-6.066-0.366-11.283-0.983-15.65-1.85c-4.367-0.867-10.233-3.884-17.6-9.051l-9.7-7.449l7.4,2.6
				c5.667,1.833,10.3,2.967,13.9,3.4c3.4,0.399,7.8,0.6,13.2,0.6c-0.933,0.4-1.8,0.95-2.6,1.65c-1.6,1.399-2.034,2.85-1.3,4.35
				C48.717,108.85,52.233,110.184,58.7,111.75z"/>
			<path style="fill-rule:evenodd;clip-rule:evenodd;fill:#B66845;" d="M64,100.85c-2.133,0.134-7.083,0.134-14.85,0L38.1,100.65
				L25.2,94.3l11.35,2.15c9.067,1.333,17.35,1.816,24.85,1.45c4.7-0.233,9.234-0.717,13.6-1.45c2.2-0.334,3.934-0.667,5.2-1l0.6,1.2
				C73,99.25,67.4,100.65,64,100.85z"/>
			<path style="fill-rule:evenodd;clip-rule:evenodd;fill:#BF6F44;" d="M97.4,115.3c3.133-1.233,6.1-2.8,8.899-4.7
				c1.533-1.033,3.334-2.35,5.4-3.949c0.6,2.433,0.767,4.983,0.5,7.649c-0.3,3.066-1.15,5.384-2.55,6.95
				c-2.167,2.467-10.033,5.05-23.601,7.75c-13.767,2.767-23.8,3.634-30.1,2.6c-5.367-0.866-10.784-2.483-16.25-4.85
				c-5.567-2.366-10.05-5-13.45-7.9c-1.6-1.366-3.333-4.449-5.2-9.25c-1.866-4.899-3-9.399-3.4-13.5l3.2,3.301
				c2.767,2.666,5.767,5.166,9,7.5c10.267,7.333,20.767,11.416,31.5,12.25C76.083,120.25,88.1,118.967,97.4,115.3z"/>
			<path style="fill-rule:evenodd;clip-rule:evenodd;fill:#AF6548;" d="M55.95,118.55l-2,3c-1.034,2.267-0.867,4.017,0.5,5.25
				c1.1,1,2.917,2.7,5.45,5.101l-3.95-0.301c-5.4-0.3-10.417-1.449-15.05-3.449c-4.667-2-9.55-5.101-14.65-9.301
				c-1.633-1.333-3.367-4.416-5.2-9.25c-1.866-4.899-3-9.399-3.4-13.5c0-0.199,0.317-0.433,0.95-0.699
				c1.633,2.366,3.917,5.066,6.85,8.1c4.8,4.9,9.466,8.417,14,10.55c3.767,1.767,7.65,3.05,11.65,3.851
				C53.1,118.3,54.717,118.517,55.95,118.55z"/>
			<path style="fill-rule:evenodd;clip-rule:evenodd;fill:#B66845;" d="M105.45,112.25c1.467-1.1,2.684-2.566,3.649-4.4
				c0.534-1,1.134-2.183,1.801-3.55c1.166,2.601,1.717,5.667,1.649,9.2c-0.066,3.866-0.933,6.75-2.6,8.65
				c-0.566,0.666-2.066,1.449-4.5,2.35c-2.601,0.967-5.101,1.583-7.5,1.85c0.033-0.199,0.533-1.133,1.5-2.8
				c0.866-1.533,1.267-2.5,1.2-2.899c-0.367-2.367-1.334-3.834-2.9-4.4l-2.2-0.1l3.351-0.75
				C101.467,114.634,103.65,113.583,105.45,112.25z"/>
			<path style="fill-rule:evenodd;clip-rule:evenodd;fill:#BF6F44;" d="M23.75,99.75l6.15,5.55c4.633,3.9,8.217,6.316,10.75,7.25
				c4.4,1.601,12.9,4.2,25.5,7.8c-7.433-0.767-12.3-1.399-14.6-1.899c-2.433-0.566-6.767-2.033-13-4.4
				c-5.3-2.033-10.383-5.783-15.25-11.25l-5.75-7.649L23.75,99.75z"/>
			<path style="fill-rule:evenodd;clip-rule:evenodd;fill:#E08761;" d="M109.15,102.7l0.35-0.15c0.333,0.101,0.8,0.684,1.4,1.75
				c0.633,1.066,1.017,3.117,1.149,6.15c0.067,1.5,0.067,2.899,0,4.2c0-0.601-0.083-1.267-0.25-2c-0.366-1.5-0.983-2.634-1.85-3.4
				c-0.8-0.7-2.217-0.583-4.25,0.35c-4.634,2.101-7.917,3.483-9.851,4.15c-4.866,1.667-10.149,2.767-15.85,3.3
				c-5.833,0.533-11.65,0.434-17.45-0.3c-3.7-0.467-8.566-1.667-14.6-3.6l-7.9-2.7l6.25,1.2c4.967,0.899,9.384,1.6,13.25,2.1
				c4.7,0.6,10.05,0.75,16.05,0.45c6.134-0.3,12.084-1.05,17.851-2.25c4.866-1,8.95-2.834,12.25-5.5
				C107.333,105.083,108.483,103.833,109.15,102.7z"/>
			<path style="fill-rule:evenodd;clip-rule:evenodd;fill:#AB6346;" d="M37.65,86.75l4.95,0.9c4,0.5,7.75,0.5,11.25,0
				s6.233-0.7,8.2-0.601c0.967,0.066,1.583,0.167,1.85,0.3c-0.566,0.367-1.367,0.733-2.4,1.101c-2.033,0.733-4.184,1.166-6.45,1.3
				c-2.233,0.134-5.8-0.333-10.7-1.4L37.65,86.75z"/>
			<path style="fill-rule:evenodd;clip-rule:evenodd;fill:#AB6346;" d="M63.9,87.35l1.05-0.6l3.149,0.3
				c2.733,0.101,5.584,0,8.551-0.3c3.6-0.4,5.933-0.583,7-0.55c-0.067,0.3-0.434,0.666-1.101,1.1c-1.366,0.8-3.616,1.45-6.75,1.95
				c-1.967,0.333-4.55,0.116-7.75-0.65L63.9,87.35z"/>
			<path style="fill-rule:evenodd;clip-rule:evenodd;fill:#AB6346;" d="M35.65,88.85c-0.867,1.2-2.433,2.233-4.7,3.101
				c-2.233,0.866-5.117,1.816-8.65,2.85l-4.65,1.3L17.1,94.9c1.7-0.567,4.167-1.351,7.4-2.351c1.8-0.533,3.75-1.233,5.85-2.1
				c3.167-1.267,5.15-2.3,5.95-3.101C36.3,87.783,36.083,88.283,35.65,88.85z"/>
			<path style="fill-rule:evenodd;clip-rule:evenodd;fill:#E4926F;" d="M104.75,107.8c-5.533,3.634-13.3,6.017-23.3,7.15
				c-10.867,1.2-21.434,0.517-31.7-2.05c-3.2-0.801-6.184-1.75-8.95-2.851l-3.15-1.399l3.85,1.25c3.267,1,6.633,1.85,10.1,2.55
				c11.1,2.233,21.15,2.666,30.15,1.3s16.417-3.634,22.25-6.8c2.934-1.566,4.95-3,6.05-4.3
				C109.283,104.25,107.517,105.967,104.75,107.8z"/>
			<path style="fill-rule:evenodd;clip-rule:evenodd;fill:#E08761;" d="M49.05,89.25c2.5,0.467,4.5,0.634,6,0.5
				c2.4-0.2,4.5-0.7,6.3-1.5c-0.3,0.566-0.75,1.1-1.35,1.6c-1.2,1.067-2.55,1.534-4.05,1.4s-3.65-0.616-6.45-1.45l-3.75-1.25
				L49.05,89.25z"/>
			<path style="fill-rule:evenodd;clip-rule:evenodd;fill:#995744;" d="M37.65,120.95c0.133,1.566,0.817,3.467,2.05,5.7
				c-4.634-1.667-9.117-4.267-13.45-7.801c-1.5-1.267-3.117-4.05-4.85-8.35c-1.733-4.366-2.917-8.566-3.55-12.6
				c4.8,5.5,8.8,9.183,12,11.05l11.4,6.6c-0.633,0.2-1.267,0.584-1.9,1.15C38.083,117.8,37.517,119.217,37.65,120.95z"/>
			<path style="fill-rule:evenodd;clip-rule:evenodd;fill:#AB6346;" d="M109.95,109.25l0.25,0.9c0.267,0.699,0.583,1.3,0.95,1.8
				c0.366,0.467,0.699,1.333,1,2.6c-0.334,2.967-1.167,5.2-2.5,6.7c-0.7,0.8-2.317,1.65-4.851,2.55
				c0.601-2.666,1.017-4.816,1.25-6.45c0.267-1.633-0.1-2.816-1.1-3.55l-1.601-0.649L109.95,109.25z"/>
			<path style="fill-rule:evenodd;clip-rule:evenodd;fill:#CE7A47;" d="M59.7,127.85c-0.367-1.633-0.384-3.399-0.05-5.3l0.65-2.35
				L69.9,119c1.866-0.233,3.883-0.3,6.05-0.2c1.066,0.033,1.95,0.101,2.649,0.2l1.601,4.65c0.399,3.267-1.033,5.267-4.3,6
				c-4.334,1-7.9,1.416-10.7,1.25C61.967,130.7,60.133,129.684,59.7,127.85z"/>
			<path style="fill-rule:evenodd;clip-rule:evenodd;fill:#E08761;" d="M62.65,102.2l8.8-1.9c6.167-1.2,9.899-1.616,11.2-1.25
				c1.967,0.566,4.1,1.334,6.399,2.3c2.733,1.134,4.283,2.017,4.65,2.65c0.934,1.5,0.684,2.483-0.75,2.95l-2.4,0.2
				c-0.967-0.634-2.183-1.301-3.649-2c-2.934-1.334-5.617-2.101-8.051-2.301c-2.433-0.199-5.866-0.366-10.3-0.5L62.65,102.2z"/>
			<path style="fill-rule:evenodd;clip-rule:evenodd;fill:#E08761;" d="M94,96.1l2.3,1.45c1.733,1.066,3.067,1.783,4,2.15
				c1.5,0.6,3.5,0.833,6,0.7c-0.233,0.3-0.733,0.517-1.5,0.649c-1.467,0.3-3.416,0.066-5.85-0.7c-0.9-0.267-2-1.05-3.3-2.35L94,96.1
				z"/>
			<path style="fill-rule:evenodd;clip-rule:evenodd;fill:#A25E46;" d="M47.1,124.7c0.8,1.8,1.9,3.75,3.3,5.85
				c-4.933-1.267-8.883-2.517-11.85-3.75c-1.233-0.5-1.966-1.483-2.2-2.95c-0.034-0.233-0.05-1.6-0.05-4.1
				c0-1.3,0.65-2.467,1.95-3.5c0.667-0.5,1.316-0.884,1.95-1.15l7.95,2.851l-0.95,2.35C46.633,122.1,46.6,123.566,47.1,124.7z"/>
		</g>
		<path style="fill-rule:evenodd;clip-rule:evenodd;fill:#E08761;" d="M36.5,88.4c0,0.8-0.35,1.483-1.05,2.05
			c-0.7,0.566-2.034,1.116-4,1.649L28.7,92.7l2.25-0.65c1.6-0.566,2.65-1.1,3.15-1.6c0.708-0.708,1.466-1.6,2.275-2.675L36.5,88.4z
			 M36.375,87.775L36.3,87.35h0.4C36.593,87.495,36.484,87.637,36.375,87.775z"/>
		<path style="fill-rule:evenodd;clip-rule:evenodd;fill:#E08761;" d="M80,89.25c-1.8,0.366-3.85,0.5-6.15,0.4L71,89.4l3.95-0.301
			c2.866-0.3,4.899-0.699,6.1-1.199c1.9-0.801,2.95-1.45,3.15-1.95c0.033,0.399-0.117,0.833-0.45,1.3
			C83.05,88.217,81.8,88.884,80,89.25z"/>
		<polygon style="fill-rule:evenodd;clip-rule:evenodd;fill:#AB6346;" points="36.7,87.35 40.15,87.3 39.8,89.8 		"/>
		<polygon style="fill-rule:evenodd;clip-rule:evenodd;fill:#AB6346;" points="63.4,86.8 66.15,86.2 66.35,89.8 		"/>
		<path style="fill-rule:evenodd;clip-rule:evenodd;fill:#AB6346;" d="M52.25,99.75c-2.133,0.4-4.217,0.917-6.25,1.55
			c-4.066,1.233-5.783,2.417-5.15,3.55c1,1.801,2.9,3.801,5.7,6c-2.4-0.699-5.017-1.583-7.85-2.649
			c-5.634-2.167-9.517-4.184-11.65-6.05c-2.133-1.867-4.333-3.434-6.6-4.7l-2.8-1.351l5.2-2.35l5.8,3.35
			c4.367,2.233,7.733,3.417,10.1,3.551C42.55,100.85,47.05,100.55,52.25,99.75z"/>
		<path style="fill-rule:evenodd;clip-rule:evenodd;fill:#AB6346;" d="M88.4,90.25l-0.65,1.95c-0.467,1.399-0.7,2.416-0.7,3.05
			c0,0.366,0.317,1.167,0.95,2.4c0.367,0.733,0.15,0.933-0.65,0.6c-0.866-0.366-2.633-0.684-5.3-0.95l-3.7-0.25L80,96.1
			c1.367-0.767,2.717-1.449,4.05-2.05c1.334-0.566,2.467-1.366,3.4-2.399C87.884,91.116,88.2,90.65,88.4,90.25z"/>
		<path style="fill-rule:evenodd;clip-rule:evenodd;fill:#BF6F44;" d="M40.15,87.3l7.9,5.55c2,1.4,4.3,2.9,6.9,4.5l-15.9-1.8
			c-2.1-0.233-2.9-0.7-2.4-1.399c0.9-1.267,1.3-2.101,1.2-2.5L36.7,87.35L40.15,87.3z"/>
		<path style="fill-rule:evenodd;clip-rule:evenodd;fill:#BF6F44;" d="M64.05,87.85l0.8,0.301l1.65-0.2l0.25,1
			c0.4,0.733,1.167,1.233,2.3,1.5c2.267,0.6,3.7,1.133,4.3,1.6c1.134,0.834,0.4,1.7-2.199,2.601c-1.134,0.399-3.367,0.916-6.7,1.55
			l-4.7,0.85l1-1.85c0.8-1.4,1.566-2.483,2.3-3.25c0.767-0.733,1.167-1.634,1.2-2.7L64.05,87.85z"/>
	</g>
</g>
<g id="price_x5F_tag_x5F_pt">
	
		<use xlink:href="#price_x5F_tag_x5F_pt_x5F_mc"  width="-32766" height="-32766" id="price_x5F_tag_x5F_pt_1_" x="16383" y="16383" transform="matrix(1 0 0 -1 65.8999 158.7002)" style="overflow:visible;"/>
</g>
</svg>
